<svg xmlns="http://www.w3.org/2000/svg" xmlns:xlink="http://www.w3.org/1999/xlink" version="1.1" preserveAspectRatio="xMidYMid meet" viewBox="53.224945068359375 22.586999893188477 972.8701171875 937.4930419921875" width="549px" height="530px" >
    <rect id="svgEditorBackground" x="326.6813531551721" y="640.70849609375" width="486.43506895821054" height="468.74652099609375" style="fill:none; stroke: none;"/>
    <defs id="svgEditorDefs">
        <polygon id="svgEditorShapeDefs" style="fill:rosybrown;stroke:black;vector-effect:non-scaling-stroke;stroke-width:1px;"/>
    </defs>
    <defs>
        <path d="" id="dxt0pp92r"/>
        <path d="M246.24 251.21L246.24 86.67" id="afM8RxwbQ"/>
        <path d="M379.65 251.21L379.65 86.67" id="cfjMfgChV"/>
        <path d="M422.27 284.61L589.65 284.61" id="b5OxVNm4Y"/>
        <path d="M422.27 382.55L589.65 382.55" id="g77ZzNZA1"/>
        <path d="M246.24 587.45L246.24 422.91" id="f23XxzPdA"/>
        <path d="M379.65 587.45L379.65 422.91" id="dkQXXSdND"/>
        <path d="" id="bz9rRvdM"/>
        <path d="M379.65 422.91C383 396.95 397.21 383.5 422.27 382.55" id="afaO7SXaT"/>
        <path d="M379.65 251.21C383 272.69 397.21 283.83 422.27 284.61" id="cvbV071s0"/>
        <path d="M203.62 284.61L36.24 284.61" id="a5f9AhvgKh"/>
        <path d="M246.24 251.21C242.88 272.69 228.68 283.83 203.62 284.61" id="a2ZFH71Etu"/>
        <path d="M203.62 384.75L36.24 384.75" id="b1oZZ1esgB"/>
        <path d="" id="b27HAQObv"/>
        <path d="M246.24 425.11C242.88 399.15 228.68 385.7 203.62 384.75" id="a81I8t4SQv"/>
    </defs>
    <g transform="matrix(1.6488 0 0 1.6488 -12.9192 -114.197)">
        <g>
            <g>
                <g>
                    <use xlink:href="#dxt0pp92r" opacity="1" fill-opacity="0" stroke="#000000" stroke-width="1" stroke-opacity="1"/>
                </g>
            </g>
            <g>
                <g>
                    <use xlink:href="#afM8RxwbQ" opacity="1" fill-opacity="0" stroke="#000000" stroke-width="1" stroke-opacity="1"/>
                </g>
            </g>
            <g transform="matrix(1 0 0 1 49.167 0)">
                <g>
                    <use xlink:href="#cfjMfgChV" opacity="1" fill-opacity="0" stroke="#000000" stroke-width="1" stroke-opacity="1"/>
                </g>
            </g>
            <g transform="matrix(1 0 0 1 49.167 0)">
                <g>
                    <use xlink:href="#b5OxVNm4Y" opacity="1" fill-opacity="0" stroke="#000000" stroke-width="1" stroke-opacity="1"/>
                </g>
            </g>
            <g transform="matrix(1 0 0 1 49.167 60.8119)">
                <g>
                    <use xlink:href="#g77ZzNZA1" opacity="1" fill-opacity="0" stroke="#000000" stroke-width="1" stroke-opacity="1"/>
                </g>
            </g>
            <g transform="matrix(1 0 0 1 0 60.8119)">
                <g>
                    <use xlink:href="#f23XxzPdA" opacity="1" fill-opacity="0" stroke="#000000" stroke-width="1" stroke-opacity="1"/>
                </g>
            </g>
            <g transform="matrix(1 0 0 1 49.167 60.8119)">
                <g>
                    <use xlink:href="#dkQXXSdND" opacity="1" fill-opacity="0" stroke="#000000" stroke-width="1" stroke-opacity="1"/>
                </g>
            </g>
            <g>
                <g>
                    <use xlink:href="#bz9rRvdM" opacity="1" fill-opacity="0" stroke="#000000" stroke-width="1" stroke-opacity="1"/>
                </g>
            </g>
            <g transform="matrix(1 0 0 1 49.167 60.8119)">
                <g>
                    <use xlink:href="#afaO7SXaT" opacity="1" fill-opacity="0" stroke="#000000" stroke-width="1" stroke-opacity="1"/>
                </g>
            </g>
            <g transform="matrix(1 0 0 1 49.167 0)">
                <g>
                    <use xlink:href="#cvbV071s0" opacity="1" fill-opacity="0" stroke="#000000" stroke-width="1" stroke-opacity="1"/>
                </g>
            </g>
            <g>
                <g>
                    <use xlink:href="#a5f9AhvgKh" opacity="1" fill-opacity="0" stroke="#000000" stroke-width="1" stroke-opacity="1"/>
                </g>
            </g>
            <g>
                <g>
                    <use xlink:href="#a2ZFH71Etu" opacity="1" fill-opacity="0" stroke="#000000" stroke-width="1" stroke-opacity="1"/>
                </g>
            </g>
            <g transform="matrix(1 0 0 1 0 60.8119)">
                <g>
                    <use xlink:href="#b1oZZ1esgB" opacity="1" fill-opacity="0" stroke="#000000" stroke-width="1" stroke-opacity="1"/>
                </g>
            </g>
            <g>
                <g>
                    <use xlink:href="#b27HAQObv" opacity="1" fill-opacity="0" stroke="#000000" stroke-width="1" stroke-opacity="1"/>
                </g>
            </g>
            <g transform="matrix(1 0 0 1 0 60.8119)">
                <g>
                    <use xlink:href="#a81I8t4SQv" opacity="1" fill-opacity="0" stroke="#000000" stroke-width="1" stroke-opacity="1"/>
                </g>
            </g>
        </g>
    </g>
    <path d="M3.2804971134340315,0.12408909115598024v-1.9999999999999991l3.158420390304358,3.999999999999999l-3.158420390304359,4.0000000000000036v-2.0000000000000036h-4.841579609695643v-4Z" style="fill:black; stroke:black; vector-effect:non-scaling-stroke;stroke-width:1px;" id="Total_outside_Right_Arrow" transform="matrix(10.7734 0 0 3.71202 924.512 560.544)"/>
    <path d="M-4.794733837820497,-45.612184651600195v-2l3.1584203903043595,4l-3.1584203903043595,4v-2h-4.841579609695644v-4Z" style="fill:black; stroke:black; vector-effect:non-scaling-stroke;stroke-width:1px;" id="Total_inside_Right_Arrow" transform="matrix(-10.7734 -0.0302691 0.0104293 -3.71201 885.97 257.813)"/>
    <path d="M-72.17349110759386,1.74282366369803v-1.9999999999999913l3.158420390304343,3.999999999999998l-3.158420390304343,3.9999999999999964v-1.9999999999999964h-4.841579609695657v-4.000000000000003Z" style="fill:black; stroke:black; vector-effect:non-scaling-stroke;stroke-width:1px;" id="Total_inside_Left_Arrow" transform="matrix(10.7734 0 0 3.71202 924.512 560.544)"/>
    <path d="M70.41569819493577,-45.938119186940924v-2l3.158420390304343,4l-3.158420390304343,4v-2h-4.841579609695543v-4Z" style="fill:black; stroke:black; vector-effect:non-scaling-stroke;stroke-width:1px;" id="Total_outside_Left_Arrow" transform="matrix(-10.7734 -0.0302691 0.0104293 -3.71201 885.97 257.813)"/>
    <path d="M-39.088870999002005,-86.45896816471682v-2l3.158420390304329,4l-3.158420390304329,4v-2h-4.841579609695671v-4Z" style="fill:black; stroke:black; vector-effect:non-scaling-stroke;stroke-width:1px;" id="Total_inside_Up_Arrow" transform="matrix(-0.012489 10.7734 -3.71202 -0.00430312 135.955 541.563)"/>
    <path d="M37.71769642186381,53.911225159447156v-2l3.1584203903043715,4l-3.1584203903043715,4v-2h-4.841579609695643v-4Z" style="fill:black; stroke:black; vector-effect:non-scaling-stroke;stroke-width:1px;" id="Total_outside_Up_Arrow" transform="matrix(0.042758 -10.7734 3.712 0.0147324 434.675 503.372)"/>
    <path d="M31.37458479419651,-84.71182243840553v-2l3.158420390304361,4l-3.1584203903043573,4v-2h-4.841579609695646v-4Z" style="fill:black; stroke:black; vector-effect:non-scaling-stroke;stroke-width:1px;" id="Total_outside_Down_Arrow" transform="matrix(-0.012489 10.7734 -3.71202 -0.00430312 131.899 541.563)"/>
    <path d="M-33.074169779571235,55.45756108844132v-2l3.1584203903043786,4l-3.1584203903043786,4.000000000000028v-2.0000000000000497h-4.841579609695657v-3.9999999999999787Z" style="fill:black; stroke:black; vector-effect:non-scaling-stroke;stroke-width:1px;" id="Total_inside_Down_Arrow" transform="matrix(0.042758 -10.7734 3.712 0.0147324 434.675 503.372)"/>
    <path d="M-5.057908815428137,-0.9736549489891752a1.8,1.8,0,1,0,0,-3.600000000000003h-2v1.0000000000000009l-1.2500000000000018,-1.6250000000000009l1.2500000000000018,-1.625v1h2a2.25,2.25,0,0,1,0,6.25Z" style="fill:black; stroke:black; vector-effect:non-scaling-stroke;stroke-width:1px;" id="Right_around_Arrow" transform="matrix(-5.91968 -0.0231282 0.0231282 -5.91968 711.879 549.504)"/>
    <path d="M-5.5904965875377215,4.209206374772762l1.2499999999999982,-1.5625000000000009v1.2500000000000018a8,8,0,0,1,5.861064138597744,5.513821449903333a149.210846,149.210846,0,0,0,-2.6874364113161278,-0.05564137445023043a4.17042,4.17042,0,0,0,-3.173627727281616,-4.7081800754531v1.2500000000000027Z" style="fill:black; stroke:black; vector-effect:non-scaling-stroke;stroke-width:1px;" id="Right_left_Arrow" transform="matrix(-0.0000480079 -5.48499 5.48499 -0.0000480079 710.721 492.634)"/>
    <path d="M9.12442528146012,-52.54063661925329v-2l3.1584203903043644,4l-3.1584203903043644,4v-2h-4.841579609695637v-4Z" style="fill:black; stroke:black; vector-effect:non-scaling-stroke;stroke-width:1px;" id="Right_forward_Arrow" transform="matrix(-6.86449 -0.0192866 0.00664524 -2.36518 801.511 334.252)"/>
    <path d="M8.508076789721116,2.1928994792330485l-1.2499999999999964,-1.5625000000000004v1.2500000000000004a8,8,0,0,0,-5.9543058429192,5.621660721341286a37.569937,37.569937,0,0,1,2.7523917764229546,0.041253092613914966a4.304151,4.304151,0,0,1,3.201914066496247,-4.9129138139552v1.25Z" style="fill:black; stroke:black; vector-effect:non-scaling-stroke;stroke-width:1px;" id="Right_right_Arrow" transform="matrix(-0.110469 -5.55234 5.55234 -0.110469 722.79 427.256)"/>
    <path d="M30.71668619538748,-22.92064745656299a1.8,1.8,0,1,0,0,-3.6000000000000014h-2v1l-1.25,-1.625l1.25,-1.625v1h2a2.25,2.25,0,0,1,0,6.25Z" style="fill:black; stroke:black; vector-effect:non-scaling-stroke;stroke-width:1px;" id="Down_around_Arrow" transform="matrix(0.00918477 -5.91972 5.91972 0.00918477 608.432 841.395)"/>
    <path d="M-29.125619277892618,-34.49330518845662l1.25,-1.5625v1.25a8,8,0,0,1,5.86106413859774,5.5138214499033325a149.210846,149.210846,0,0,0,-2.6874364113161278,-0.05564137445023576a4.17042,4.17042,0,0,0,-3.1736277272816125,-4.708180075453097v1.25Z" style="fill:black; stroke:black; vector-effect:non-scaling-stroke;stroke-width:1px;" id="Down_left_Arrow" transform="matrix(5.48497 -0.0129675 0.0129675 5.48497 665.299 840.103)"/>
    <path d="M39.99596930904489,-107.37248010484991v-2l3.1584203903043715,4l-3.1584203903043715,4v-2h-4.8415796096956285v-4Z" style="fill:black; stroke:black; vector-effect:non-scaling-stroke;stroke-width:1px;" id="Down_forward_Arrow" transform="matrix(0.00311775 -6.86452 2.36519 0.00107421 823.895 930.519)"/>
    <path d="M-13.972322664322888,-36.487216614015054l-1.25,-1.562500000000007v1.250000000000007a8,8,0,0,0,-5.954305842919197,5.621660721341279a37.569937,37.569937,0,0,1,2.7523917764229537,0.04125309261392118a4.304151,4.304151,0,0,1,3.201914066496249,-4.912913813955207v1.250000000000007Z" style="fill:black; stroke:black; vector-effect:non-scaling-stroke;stroke-width:1px;" id="e25" transform="matrix(5.55206 -0.123547 0.123547 5.55206 730.705 852.018)"/>
    <path d="M28.340072653439712,15.112531165363066a1.8,1.8,0,1,0,0,-3.599999999999998h-2v1l-1.25,-1.6250000000000036l1.25,-1.6249999999999964v1h2a2.25,2.25,0,0,1,0,6.2499999999999964Z" style="fill:black; stroke:black; vector-effect:non-scaling-stroke;stroke-width:1px;" id="Up_around_Arrow" transform="matrix(-0.0203657 5.91969 -5.91969 -0.0203657 704.572 134.067)"/>
    <path d="M11.911675019520667,-31.7676111925067l1.2499999999999982,-1.562500000000007v1.25a8,8,0,0,1,5.86106413859774,5.513821449903343a149.210846,149.210846,0,0,0,-2.6874364113161278,-0.055641374450232206a4.17042,4.17042,0,0,0,-3.1736277272816125,-4.708180075453104v1.2500000000000036Z" style="fill:black; stroke:black; vector-effect:non-scaling-stroke;stroke-width:1px;" id="Up_left_Arrow" transform="matrix(-5.48499 0.00260761 -0.00260761 -5.48499 647.703 135.251)"/>
    <path d="M37.91046661289534,-12.18754477593329v-2l3.1584203903043644,4l-3.1584203903043644,4v-2h-4.841579609695643v-4Z" style="fill:black; stroke:black; vector-effect:non-scaling-stroke;stroke-width:1px;" id="Up_forward_Arrow" transform="matrix(-0.0160832 6.8645 -2.36518 -0.00554151 489.279 44.5352)"/>
    <path d="M26.497627429051526,-32.98975223084605l-1.249999999999993,-1.5625v1.25a8,8,0,0,0,-5.954305842919204,5.621660721341289a37.569937,37.569937,0,0,1,2.7523917764229537,0.04125309261391408a4.304151,4.304151,0,0,1,3.2019140664962507,-4.912913813955203v1.2499999999999964Z" style="fill:black; stroke:black; vector-effect:non-scaling-stroke;stroke-width:1px;" id="Up_right_Arrow" transform="matrix(-5.55229 0.11306 -0.11306 -5.55229 582.319 123.213)"/>
    <path d="M59.27239309167211,49.9628984244747a1.8,1.8,0,1,0,0,-3.5999999999999943h-2v1l-1.25,-1.625000000000007l1.25,-1.624999999999993v1h2a2.25,2.25,0,0,1,0,6.249999999999993Z" style="fill:black; stroke:black; vector-effect:non-scaling-stroke;stroke-width:1px;" id="Left_around_Arrow" transform="matrix(5.9196 0.0389758 -0.0389758 5.9196 -0.850919 115.831)"/>
    <path d="M49.65467829628307,-65.00405774338222l1.25,-1.5625v1.25a8,8,0,0,1,5.86106413859774,5.513821449903347a149.210846,149.210846,0,0,0,-2.6874364113161278,-0.055641374450232206a4.17042,4.17042,0,0,0,-3.1736277272816125,-4.7081800754531145v1.2500000000000142Z" style="fill:black; stroke:black; vector-effect:non-scaling-stroke;stroke-width:1px;" id="Left_left_Arrow" transform="matrix(-0.014636 5.48497 -5.48497 -0.014636 0.154885 172.703)"/>
    <path d="M65.73412268194899,75.1040554558733v-2l3.1584203903043715,4l-3.1584203903043715,4v-2h-4.841579609695621v-4Z" style="fill:black; stroke:black; vector-effect:non-scaling-stroke;stroke-width:1px;" id="Left_forward_Arrow" transform="matrix(6.86442 0.0376636 -0.0129771 2.36515 -91.0589 330.841)"/>
    <path d="M64.42075345794436,-65.06884261559539l-1.25,-1.5625000000000142v1.25a8,8,0,0,0,-5.954305842919204,5.621660721341314a37.569937,37.569937,0,0,1,2.7523917764229537,0.04125309261391408a4.304151,4.304151,0,0,1,3.2019140664962507,-4.912913813955214v1.2500000000000142Z" style="fill:black; stroke:black; vector-effect:non-scaling-stroke;stroke-width:1px;" id="Left_right_Arrow" transform="matrix(0.0956043 5.55262 -5.55262 0.0956043 -12.0891 238.049)"/>
    <text dy="-0.5em" style="fill:black;font-family:Arial;font-size:20px;" id="e4_text"/>
    <text dy="-0.5em" style="fill:black;font-family:Arial;font-size:20px;" id="e2_text" transform="matrix(1 0 0 1 -225.972 62.5768)"/>
    <text dy="-0.5em" style="fill:black;font-family:Arial;font-size:20px;" id="e6_text"/>
    <text dy="-0.5em" style="fill:black;font-family:Arial;font-size:20px;" id="e8_text"/>
    <text style="fill:black;font-family:Arial;font-size:20px;" x="478.7387390136719" y="115.90258026123047" id="Total_inside_Up" transform="matrix(-0.012085 -0.999927 0.999927 -0.012085 314.185 608.746)">
        <tspan x="478.7387390136719" id="Total_inside_Up" style="font-size:18px;">0-0-0</tspan>
    </text>
    <text style="fill:black;font-family:Arial;font-size:20px;" x="477.5749206542969" y="313.83892822265625" id="Total_outside_Up" transform="matrix(-0.012085 -0.999927 0.999927 -0.012085 314.185 608.746)">
        <tspan x="476.19586181640625" id="Total_outside_Up" style="font-size:18px;">0-0-0</tspan>
    </text>
    <text style="fill:black;font-family:Arial;font-size:20px;" x="460.02685546875" y="105.14507293701172" id="Total_outside_Down" transform="matrix(-0.012085 -0.999927 0.999927 -0.012085 316.503 1345.76)">
        <tspan x="435.2645568847656" id="Total_outside_Down" style="font-size:18px;">0-0-0</tspan>
    </text>
    <text style="fill:black;font-family:Arial;font-size:20px;" x="458.1480712890625" y="314.2958679199219" id="Total_inside_Down" transform="matrix(-0.012085 -0.999927 0.999927 -0.012085 316.503 1345.76)">
        <tspan x="433.48187255859375" id="Total_inside_Down" style="font-size:18px;">0-0-0</tspan>
    </text>
    <text style="fill:black;font-family:Arial;font-size:20px;" x="475.5047607421875" y="116.74325561523438" id="Total_inside_Left" transform="matrix(0.999945 0.010533 -0.010533 0.999945 -383.479 426.137)">     
        <tspan x="475.5049133300781" style="font-size:18px;" id="e4_span">0-0-0</tspan>
    </text>
    <text style="fill:black;font-family:Arial;font-size:18px;" x="476.730712890625" y="-39.01933288574219" id="Total_outside_Left" transform="matrix(0.999945 0.010533 -0.010533 0.999945 -383.479 426.137)">
        <tspan x="476.730712890625" id="e5_tspan">0-0-0</tspan>
    </text>
    <text style="fill:black;font-family:Arial;font-size:20px;" x="1289.3831787109375" y="-48.15892028808594" id="Total_inside_Right" transform="matrix(0.999945 0.010533 -0.010533 0.999945 -383.479 426.137)">
        <tspan x="1289.3831787109375" id="Total_inside_Right" style="font-size:18px;">0-0-0</tspan>
    </text>
    <text style="fill:black;font-family:Arial;font-size:20px;" x="1294.122314453125" y="106.35125732421875" id="Total_outside_Right" transform="matrix(0.999945 0.010533 -0.010533 0.999945 -383.479 426.137)">
        <tspan x="1294.122314453125" id="Total_outside_Right" style="font-size:18px;">0-0-0</tspan>
    </text>
    <text style="fill:black;font-family:Arial;font-size:16px;" x="1171.4639892578125" y="-20.720306396484375" id="Right_right" transform="matrix(0.999945 0.010533 -0.010533 0.999945 -383.479 426.137)">
        <tspan x="1171.4639892578125" id="e8_tspan">0-0-0</tspan>
    </text>
    <text style="fill:black;font-family:Arial;font-size:16px;" x="1172.9896240234375" y="25.74077796936035" id="Right_forward" transform="matrix(0.999945 0.010533 -0.010533 0.999945 -383.479 426.137)">
        <tspan x="1172.9896240234375" id="e10_tspan">0-0-0</tspan>
    </text>
    <text style="fill:black;font-family:Arial;font-size:16px;" x="1172.4710693359375" y="74.8778076171875" id="Right_left" transform="matrix(0.999945 0.010533 -0.010533 0.999945 -383.479 426.137)">
        <tspan x="1172.4710693359375" id="e11_tspan">0-0-0</tspan>
    </text>
    <text style="fill:black;font-family:Arial;font-size:16px;" x="1173.5272216796875" y="131.7738494873047" id="Right_around" transform="matrix(0.999945 0.010533 -0.010533 0.999945 -383.479 426.137)">
        <tspan x="1173.5272216796875" id="e12_tspan">0-0-0</tspan>
    </text>
    <text style="fill:black;font-family:Arial;font-size:16px;" x="665.51513671875" y="-17.708627700805664" id="Left_around" transform="matrix(0.999945 0.010533 -0.010533 0.999945 -383.479 426.137)">
        <tspan x="599.4157104492188" id="Left_around_tspan">0-0-0</tspan>
    </text>
    <text style="fill:black;font-family:Arial;font-size:16px;" x="599.8862915039062" y="34.674861907958984" id="Left_left" transform="matrix(0.999945 0.010533 -0.010533 0.999945 -383.479 426.137)">
        <tspan x="599.8862915039062" id="e14_tspan">0-0-0</tspan>
    </text>
    <text style="fill:black;font-family:Arial;font-size:16px;" x="600.5570068359375" y="86.69664001464844" id="Left_forward" transform="matrix(0.999945 0.010533 -0.010533 0.999945 -383.479 426.137)">
        <tspan x="600.5570068359375" id="e15_tspan">0-0-0</tspan>
    </text>
    <text style="fill:black;font-family:Arial;font-size:16px;" x="601.5765380859375" y="140.11639404296875" id="Left_right" transform="matrix(0.999945 0.010533 -0.010533 0.999945 -383.479 426.137)">
        <tspan x="601.5765380859375" id="e16_tspan">0-0-0</tspan>
    </text>
    <text style="fill:black;font-family:Arial;font-size:16px;" x="346.4250793457031" y="151.2476348876953" id="Up_right" transform="matrix(-0.012085 -0.999927 0.999927 -0.012085 314.185 608.746)">
        <tspan x="346.4250793457031" id="e17_tspan">0-0-0</tspan>
    </text>
    <text style="fill:black;font-family:Arial;font-size:16px;" x="345.7953186035156" y="209.1152801513672" id="Up_forward" transform="matrix(-0.012085 -0.999927 0.999927 -0.012085 314.185 608.746)">
        <tspan x="345.7953186035156" id="e18_tspan">0-0-0</tspan>
    </text>
    <text style="fill:black;font-family:Arial;font-size:16px;" x="345.0878601074219" y="261.9078063964844" id="Up_left" transform="matrix(-0.012085 -0.999927 0.999927 -0.012085 314.185 608.746)">
        <tspan x="345.0878601074219" id="e19_tspan">0-0-0</tspan>
    </text>
    <text style="fill:black;font-family:Arial;font-size:16px;" x="344.4437255859375" y="320.9341125488281" id="Up_around" transform="matrix(-0.012085 -0.999927 0.999927 -0.012085 314.185 608.746)">
        <tspan x="344.4437255859375" id="e20_tspan">0-0-0</tspan>
    </text>
    <text style="fill:black;font-family:Arial;font-size:16px;" x="-193.37477111816406" y="147.59042358398438" id="Down_around" transform="matrix(-0.012085 -0.999927 0.999927 -0.012085 314.185 608.746)">
        <tspan x="-193.37477111816406" id="e21_tspan">0-0-0</tspan>
    </text>
    <text style="fill:black;font-family:Arial;font-size:16px;" x="-194.6118927001953" y="207.76852416992188" id="Down_left" transform="matrix(-0.012085 -0.999927 0.999927 -0.012085 314.185 608.746)">
        <tspan x="-194.6118927001953" id="e22_tspan">0-0-0</tspan>
    </text>
    <text style="fill:black;font-family:Arial;font-size:16px;" x="-167.5584259033203" y="264.9530944824219" id="Down_forward" transform="matrix(-0.012085 -0.999927 0.999927 -0.012085 314.185 608.746)">
        <tspan x="-195.34738159179688" id="e23_tspan">0-0-0</tspan>
    </text>
    <text style="fill:black;font-family:Arial;font-size:16px;" x="-196.5288848876953" y="318.4224853515625" id="Down_right" transform="matrix(-0.012085 -0.999927 0.999927 -0.012085 314.185 608.746)">
        <tspan x="-196.5288848876953" id="e24_tspan">0-0-0</tspan>
    </text>
    <text style="fill:black;font-family:Arial;font-size:18px;" x="93.90862274169922" y="452.4186706542969" id="TotalSum_outside_Left">140 (150)</text>
    <text style="fill:black;font-family:Arial;font-size:18px;" x="90.3709487915039" y="609.8469848632812" id="TotalSum_inside_Left">140 (150)</text>
    <text style="fill:black;font-family:Arial;font-size:18px;" x="912.888427734375" y="455.9564514160156" id="TotalSum_inside_Right">140 (150)</text>
    <text style="fill:black;font-family:Arial;font-size:18px;" x="907.5819091796875" y="602.7715454101562" id="TotalSum_outside_Right">140 (150)</text>
    <text style="fill:black;font-family:Arial;font-size:18px;" x="515.7476806640625" y="93.44551849365234" id="TotalSum_inside_Up" transform="matrix(-0.00908829 -0.999959 0.999959 -0.00908829 397.429 669.029)">140 (150)</text>
    <text style="fill:black;font-family:Arial;font-size:18px;" x="520.6358642578125" y="286.3453063964844" id="TotalSum_outside_Up" transform="matrix(-0.00908829 -0.999959 0.999959 -0.00908829 397.429 669.029)">140 (150)</text>
    <text style="fill:black;font-family:Arial;font-size:18px;" x="-240.3098907470703" y="75.96041870117188" id="TotalSum_outside_Down" transform="matrix(-0.00908829 -0.999959 0.999959 -0.00908829 397.429 669.029)">140 (150)</text>
    <text style="fill:black;font-family:Arial;font-size:18px;" x="-239.96420288085938" y="282.0859375" id="TotalSum_inside_Down" transform="matrix(-0.00908829 -0.999959 0.999959 -0.00908829 397.429 669.029)">140 (150)</text>
    <text style="fill:black;font-family:Arial;font-size:20px;" x="444.31005859375" y="951.1426391601562" id="StreetName_Down">Направление 3</text>
    <text style="fill:black;font-family:Arial;font-size:20px;" x="437.234619140625" y="49.91118621826172" id="StreetName_Up">Направление 1</text>
    <text style="fill:black;font-family:Arial;font-size:20px;" x="256.6328430175781" y="1008.5728759765625" id="StreetName_Right" transform="matrix(-0.00269868 -0.999996 0.999996 -0.00269868 15.4245 835.533)">Направление 2</text>
    <text style="fill:black;font-family:Arial;font-size:20px;" x="247.07351684570312" y="57.78267288208008" id="StreetName_Left" transform="matrix(-0.00269868 -0.999996 0.999996 -0.00269868 15.4245 835.533)">Направление 4</text>
</svg>