<svg xmlns="http://www.w3.org/2000/svg" xmlns:xlink="http://www.w3.org/1999/xlink" version="1.1" preserveAspectRatio="xMidYMid meet" viewBox="52.84817886352539 22.586999893188477 973.6235961914062 937.4930419921875" width="549px" height="530px" >
    <rect id="svgEditorBackground" x="393.74776948173087" y="-276.63543701171875" width="972.8701379164211" height="937.4930419921875" style="fill: none; stroke: none;"/>
    <defs id="svgEditorDefs">
        <polygon id="svgEditorShapeDefs" style="fill:rosybrown;stroke:black;vector-effect:non-scaling-stroke;stroke-width:1px;"/>
    </defs>
    <defs>
        <path d="" id="dxt0pp92r"/>
        <path d="M246.24 251.21L246.24 86.67" id="afM8RxwbQ"/>
        <path d="M379.65 251.21L379.65 86.67" id="cfjMfgChV"/>
        <path d="M422.27 284.61L589.65 284.61" id="b5OxVNm4Y"/>
        <path d="M422.27 382.55L589.65 382.55" id="g77ZzNZA1"/>
        <path d="M246.24 587.45L246.24 422.91" id="f23XxzPdA"/>
        <path d="M379.65 587.45L379.65 422.91" id="dkQXXSdND"/>
        <path d="" id="bz9rRvdM"/>
        <path d="M379.65 422.91C383 396.95 397.21 383.5 422.27 382.55" id="afaO7SXaT"/>
        <path d="M379.65 251.21C383 272.69 397.21 283.83 422.27 284.61" id="cvbV071s0"/>
        <path d="M203.62 284.61L36.24 284.61" id="a5f9AhvgKh"/>
        <path d="M246.24 251.21C242.88 272.69 228.68 283.83 203.62 284.61" id="a2ZFH71Etu"/>
        <path d="M203.62 384.75L36.24 384.75" id="b1oZZ1esgB"/>
        <path d="" id="b27HAQObv"/>
        <path d="M246.24 425.11C242.88 399.15 228.68 385.7 203.62 384.75" id="a81I8t4SQv"/>
    </defs>
    <g transform="matrix(1.6488 0 0 1.6488 -12.9192 -114.197)">
        <g>
            <g>
                <g>
                    <use xlink:href="#dxt0pp92r" opacity="1" fill-opacity="0" stroke="#000000" stroke-width="1" stroke-opacity="1"/>
                </g>
            </g>
            <g>
                <g>
                    
                </g>
            </g>
            <g transform="matrix(1 0 0 1 49.167 0)">
                <g>
                    
                </g>
            </g>
            
            <g transform="matrix(1 0 0 1 49.167 60.8119)">
                <g>
                    <use xlink:href="#g77ZzNZA1" opacity="1" fill-opacity="0" stroke="#000000" stroke-width="1" stroke-opacity="1"/>
                </g>
            </g>
            <g transform="matrix(1 0 0 1 0 60.8119)">
                <g>
                    <use xlink:href="#f23XxzPdA" opacity="1" fill-opacity="0" stroke="#000000" stroke-width="1" stroke-opacity="1"/>
                </g>
            </g>
            <g transform="matrix(1 0 0 1 49.167 60.8119)">
                <g>
                    <use xlink:href="#dkQXXSdND" opacity="1" fill-opacity="0" stroke="#000000" stroke-width="1" stroke-opacity="1"/>
                </g>
            </g>
            <g>
                <g>
                    <use xlink:href="#bz9rRvdM" opacity="1" fill-opacity="0" stroke="#000000" stroke-width="1" stroke-opacity="1"/>
                </g>
            </g>
            <g transform="matrix(1 0 0 1 49.167 60.8119)">
                <g>
                    <use xlink:href="#afaO7SXaT" opacity="1" fill-opacity="0" stroke="#000000" stroke-width="1" stroke-opacity="1"/>
                </g>
            </g>
            <g transform="matrix(1 0 0 1 49.167 0)">
                <g>
                    
                </g>
            </g>
            
            <g>
                <g>
                    
                </g>
            </g>
            <g transform="matrix(1 0 0 1 0 60.8119)">
                <g>
                    <use xlink:href="#b1oZZ1esgB" opacity="1" fill-opacity="0" stroke="#000000" stroke-width="1" stroke-opacity="1"/>
                </g>
            </g>
            <g>
                <g>
                    <use xlink:href="#b27HAQObv" opacity="1" fill-opacity="0" stroke="#000000" stroke-width="1" stroke-opacity="1"/>
                </g>
            </g>
            <g transform="matrix(1 0 0 1 0 60.8119)">
                <g>
                    <use xlink:href="#a81I8t4SQv" opacity="1" fill-opacity="0" stroke="#000000" stroke-width="1" stroke-opacity="1"/>
                </g>
            </g>
        </g>
    </g>
    <path d="M3.2804971134340315,0.12408909115598024v-1.9999999999999991l3.158420390304358,3.999999999999999l-3.158420390304359,4.0000000000000036v-2.0000000000000036h-4.841579609695643v-4Z" style="fill:black; stroke:black; vector-effect:non-scaling-stroke;stroke-width:1px;" id="Total_outside_Right_Arrow" transform="matrix(10.7734 0 0 3.71202 924.512 560.544)"/>
    <path d="M-4.794733837820497,-45.612184651600195v-2l3.1584203903043595,4l-3.1584203903043595,4v-2h-4.841579609695644v-4Z" style="fill:black; stroke:black; vector-effect:non-scaling-stroke;stroke-width:1px;" id="Total_inside_Right_Arrow" transform="matrix(-10.7734 -0.0302691 0.0104293 -3.71201 885.97 257.813)"/>
    <path d="M-72.17349110759386,1.74282366369803v-1.9999999999999913l3.158420390304343,3.999999999999998l-3.158420390304343,3.9999999999999964v-1.9999999999999964h-4.841579609695657v-4.000000000000003Z" style="fill:black; stroke:black; vector-effect:non-scaling-stroke;stroke-width:1px;" id="Total_inside_Left_Arrow" transform="matrix(10.7734 0 0 3.71202 924.512 560.544)"/>
    <path d="M70.41569819493577,-45.938119186940924v-2l3.158420390304343,4l-3.158420390304343,4v-2h-4.841579609695543v-4Z" style="fill:black; stroke:black; vector-effect:non-scaling-stroke;stroke-width:1px;" id="Total_outside_Left_Arrow" transform="matrix(-10.7734 -0.0302691 0.0104293 -3.71201 885.97 257.813)"/>
    
    
    <path d="M31.37458479419651,-84.71182243840553v-2l3.158420390304361,4l-3.1584203903043573,4v-2h-4.841579609695646v-4Z" style="fill:black; stroke:black; vector-effect:non-scaling-stroke;stroke-width:1px;" id="Total_outside_Down_Arrow" transform="matrix(-0.012489 10.7734 -3.71202 -0.00430312 131.899 541.563)"/>
    <path d="M-33.074169779571235,55.45756108844132v-2l3.1584203903043786,4l-3.1584203903043786,4.000000000000028v-2.0000000000000497h-4.841579609695657v-3.9999999999999787Z" style="fill:black; stroke:black; vector-effect:non-scaling-stroke;stroke-width:1px;" id="Total_inside_Down_Arrow" transform="matrix(0.042758 -10.7734 3.712 0.0147324 434.675 503.372)"/>
    <path d="M-3.1267648966084227,-0.01749484969815045a1.8,1.8,0,1,0,0,-3.600000000000003h-2v1.0000000000000004l-1.2500000000000018,-1.6249999999999991l1.2500000000000018,-1.625v1h2a2.25,2.25,0,0,1,0,6.25Z" style="fill:black; stroke:black; vector-effect:non-scaling-stroke;stroke-width:1px;" id="Right_around_Arrow" transform="matrix(-5.91968 -0.0231282 0.0231282 -5.91968 711.879 549.504)"/>
    <path d="M-2.296894593566061,2.129078310435931l1.2499999999999982,-1.5624999999999991v1.2500000000000018a8,8,0,0,1,5.8610641385977456,5.5138214499033325a149.210846,149.210846,0,0,0,-2.687436411316129,-0.05564137445022954a4.17042,4.17042,0,0,0,-3.173627727281617,-4.708180075453099v1.2500000000000018Z" style="fill:black; stroke:black; vector-effect:non-scaling-stroke;stroke-width:1px;" id="Right_left_Arrow" transform="matrix(-0.0000480079 -5.48499 5.48499 -0.0000480079 710.721 492.634)"/>
    <path d="M10.802492562452514,-36.07228736284543v-2l3.1584203903043644,4l-3.1584203903043644,4v-2h-4.841579609695637v-4Z" style="fill:black; stroke:black; vector-effect:non-scaling-stroke;stroke-width:1px;" id="Right_forward_Arrow" transform="matrix(-6.86449 -0.0192866 0.00664524 -2.36518 801.511 334.252)"/>
    
    <path d="M30.71668619538748,-22.92064745656299a1.8,1.8,0,1,0,0,-3.6000000000000014h-2v1l-1.25,-1.625l1.25,-1.625v1h2a2.25,2.25,0,0,1,0,6.25Z" style="fill:black; stroke:black; vector-effect:non-scaling-stroke;stroke-width:1px;" id="Down_around_Arrow" transform="matrix(0.00918477 -5.91972 5.91972 0.00918477 608.432 841.395)"/>
    <path d="M-26.351669481288162,-34.66009426621949l1.2499999999999964,-1.5625v1.25a8,8,0,0,1,5.861064138597744,5.5138214499033325a149.210846,149.210846,0,0,0,-2.6874364113161278,-0.05564137445023931a4.17042,4.17042,0,0,0,-3.173627727281616,-4.708180075453093v1.25Z" style="fill:black; stroke:black; vector-effect:non-scaling-stroke;stroke-width:1px;" id="Down_left_Arrow" transform="matrix(5.48497 -0.0129675 0.0129675 5.48497 665.299 840.103)"/>
    
    <path d="M-15.843741367182474,-37.04261785633197l-1.25,-1.562500000000007v1.250000000000007a8,8,0,0,0,-5.954305842919197,5.621660721341279a37.569937,37.569937,0,0,1,2.7523917764229537,0.04125309261391763a4.304151,4.304151,0,0,1,3.2019140664962507,-4.912913813955203v1.250000000000007Z" style="fill:black; stroke:black; vector-effect:non-scaling-stroke;stroke-width:1px;" id="e25" transform="matrix(5.55206 -0.123547 0.123547 5.55206 730.705 852.018)"/>
    
    
    
    
    <path d="M60.89438240806911,52.361514239094376a1.8,1.8,0,1,0,0,-3.5999999999999943h-2v1l-1.25,-1.6250000000000142l1.25,-1.6249999999999858v1h2a2.25,2.25,0,0,1,0,6.249999999999986Z" style="fill:black; stroke:black; vector-effect:non-scaling-stroke;stroke-width:1px;" id="Left_around_Arrow" transform="matrix(5.9196 0.0389758 -0.0389758 5.9196 -0.850919 115.831)"/>
    
    <path d="M66.96169330089738,65.0343590159271v-2l3.1584203903043715,4l-3.1584203903043715,4v-2h-4.841579609695671v-4Z" style="fill:black; stroke:black; vector-effect:non-scaling-stroke;stroke-width:1px;" id="Left_forward_Arrow" transform="matrix(6.86442 0.0376636 -0.0129771 2.36515 -91.0589 330.841)"/>
    <path d="M63.25193622055752,-66.80131919013158l-1.25,-1.5625000000000142v1.25a8,8,0,0,0,-5.954305842919204,5.6216607213413a37.569937,37.569937,0,0,1,2.7523917764229537,0.04125309261391408a4.304151,4.304151,0,0,1,3.2019140664962507,-4.912913813955214v1.25Z" style="fill:black; stroke:black; vector-effect:non-scaling-stroke;stroke-width:1px;" id="Left_right_Arrow" transform="matrix(0.0956043 5.55262 -5.55262 0.0956043 -12.0891 238.049)"/>
    <text dy="-0.5em" style="fill:black;font-family:Arial;font-size:20px;" id="e4_text"/>
    <text dy="-0.5em" style="fill:black;font-family:Arial;font-size:20px;" id="e2_text" transform="matrix(1 0 0 1 -225.972 62.5768)"/>
    <text dy="-0.5em" style="fill:black;font-family:Arial;font-size:20px;" id="e6_text"/>
    <text dy="-0.5em" style="fill:black;font-family:Arial;font-size:20px;" id="e8_text"/>
    <!-- Стрелка В перекресток. Значения сверху  -->
    
    <text style="fill:black;font-family:Arial;font-size:20px;" x="1289.3831787109375" y="-48.15892028808594" id="Total_inside_Right" transform="matrix(0.999945 0.010533 -0.010533 0.999945 -383.479 426.137)">
        <tspan x="1289.3831787109375" id="Total_inside_Right" style="font-size:18px;">0-0-0</tspan>
    </text>
    <text style="fill:black;font-family:Arial;font-size:20px;" x="458.1480712890625" y="314.2958679199219" id="Total_inside_Down" transform="matrix(-0.012085 -0.999927 0.999927 -0.012085 316.503 1345.76)">
        <tspan x="433.48187255859375" id="Total_inside_Down" style="font-size:18px;">0-0-0</tspan>
    </text>
    <text style="fill:black;font-family:Arial;font-size:20px;" x="475.50469970703125" y="116.74330139160156" id="Total_inside_Left" transform="matrix(0.999945 0.010533 -0.010533 0.999945 -383.479 426.137)">     
        <tspan x="475.50494384765625" style="font-size:18px;" id="e4_span">0-0-0</tspan>
    </text>
    <!-- Стрелка ИЗ перекрестка. Значения сверху  -->
    
    <text style="fill:black;font-family:Arial;font-size:20px;" x="1244.122314453125" y="106.35125732421875" id="Total_outside_Right" transform="matrix(0.999945 0.010533 -0.010533 0.999945 -383.479 426.137)">
        <tspan x="1294.122314453125" id="Total_outside_Right" style="font-size:18px;">0-0-0</tspan>
    </text>
    <text style="fill:black;font-family:Arial;font-size:20px;" x="460.02685546875" y="105.14507293701172" id="Total_outside_Down" transform="matrix(-0.012085 -0.999927 0.999927 -0.012085 316.503 1345.76)">
        <tspan x="435.2645568847656" id="Total_outside_Down" style="font-size:18px;">0-0-0</tspan>
    </text>
    <text style="fill:black;font-family:Arial;font-size:18px;" x="476.730712890625" y="-39.01933288574219" id="Total_outside_Left" transform="matrix(0.999945 0.010533 -0.010533 0.999945 -383.479 426.137)">
        <tspan x="476.730712890625" id="e5_tspan">0-0-0</tspan>
    </text>
    <!-- Маленькие стрелки  -->
    <!-- Группа разворота  -->
    
    <text style="fill:black;font-family:Arial;font-size:16px;" x="1162.0582275390625" y="126.18952941894531" id="Right_around" transform="matrix(0.999945 0.010533 -0.010533 0.999945 -383.479 426.137)">
        <tspan x="1162.0582275390625" id="Right_around_tspan1">0-0-0 </tspan>
        <tspan dx="0" id="Right_around_tspan2" fill="red">(0)</tspan>
    </text>
    <text style="fill:black;font-family:Arial;font-size:16px;" x="-199.0791778564453" y="147.521484375" id="Down_around" transform="matrix(-0.012085 -0.999927 0.999927 -0.012085 314.185 608.746)">
        <tspan x="-199.0791778564453" id="Down_around_tspan1">0-0-0 </tspan>
        <tspan dx="0" id="Down_around_tspan2" fill="red">(0)</tspan>
    </text>
    <text style="fill:black;font-family:Arial;font-size:16px;" x="656.1578369140625" y="-3.3472111225128174" id="Left_around" transform="matrix(0.999945 0.010533 -0.010533 0.999945 -383.479 426.137)">
        <tspan x="590.0584106445312" id="Left_around_tspan1">0-0-0 </tspan>
        <tspan dx="0" id="Left_around_tspan2" fill="red">(0)</tspan>
    </text>
    <!-- Группа правого поворота  -->
    
    
    <text style="fill:black;font-family:Arial;font-size:16px;" x="-199.2547149658203" y="307.92987060546875" id="Down_right" transform="matrix(-0.012085 -0.999927 0.999927 -0.012085 314.185 608.746)">
        <tspan x="-199.2547149658203" id="Down_right_tspan1">0-0-0 </tspan>
        <tspan dx="0" id="Down_right_tspan2" fill="red">(0)</tspan>
    </text>
    <text style="fill:black;font-family:Arial;font-size:16px;" x="591.9990234375" y="133.5613555908203" id="Left_right" transform="matrix(0.999945 0.010533 -0.010533 0.999945 -383.479 426.137)">
        <tspan x="591.9990234375" id="Left_right_tspan1">0-0-0 </tspan>
        <tspan dx="0" id="Left_right_tspan2" fill="red">(0)</tspan>
    </text>
    <!-- Группа прямого проезда  -->
    
    <text style="fill:black;font-family:Arial;font-size:16px;" x="1161.1702880859375" y="-13.119833946228027" id="Right_forward" transform="matrix(0.999945 0.010533 -0.010533 0.999945 -383.479 426.137)">
        <tspan x="1161.1702880859375" id="Right_forward_tspan2">0-0-0 </tspan>
        <tspan dx="0" id="Right_forward_tspan2" fill="red">(0)</tspan>
    </text>
    
    <text style="fill:black;font-family:Arial;font-size:16px;" x="589.8485717773438" y="63.03800582885742" id="Left_forward" transform="matrix(0.999945 0.010533 -0.010533 0.999945 -383.479 426.137)">
        <tspan x="589.8485717773438" id="Left_forward_tspan1">0-0-0 </tspan>
        <tspan dx="0" id="Left_forward_tspan2" fill="red">(0)</tspan>
    </text>
    <!-- Группа поворота направо  -->
    
    <text style="fill:black;font-family:Arial;font-size:16px;" x="1160.8719482421875" y="56.93370819091797" id="Right_left" transform="matrix(0.999945 0.010533 -0.010533 0.999945 -383.479 426.137)">
        <tspan x="1160.8719482421875" id="Right_Left_tspan2">0-0-0 </tspan>
        <tspan dx="0" id="Right_Left_tspan2" fill="red">(0)</tspan>
    </text>
    <text style="fill:black;font-family:Arial;font-size:16px;" x="-199.54940795898438" y="222.92274475097656" id="Down_left" transform="matrix(-0.012085 -0.999927 0.999927 -0.012085 314.185 608.746)">
        <tspan x="-199.54940795898438" id="Down_Left_tspan1">0-0-0 </tspan>
        <tspan dx="0" id="Down_Left_tspan2" fill="red">(0)</tspan>
    </text>
    
    
    <!-- Стрелка В перекресток. Значения снизу  -->
    
    <text style="fill:black;font-family:Arial;font-size:18px;" x="1307.4407958984375" y="-173.64833068847656" id="TotalSum_inside_Right" transform="matrix(0.999922 0.0125281 -0.0125281 0.999922 -407.109 616.955)">
        <tspan x="1307.4407958984375" id="TotalSum_inside_Right_tspan1">0 </tspan>
        <tspan dx="0" id="TotalSum_inside_Right_tspan2" fill="red">(0)</tspan>
    </text>
    <text style="fill:black;font-family:Arial;font-size:18px;" x="-239.96420288085938" y="282.0859375" id="TotalSum_inside_Down" transform="matrix(-0.00908829 -0.999959 0.999959 -0.00908829 397.429 669.029)">
        <tspan x="-239.96420288085938" id="TotalSum_inside_Down_tspan1">0 </tspan>
        <tspan dx="0" id="TotalSum_inside_Down_tspan2" fill="red">(0)</tspan>
    </text>  
    <text style="fill:black;font-family:Arial;font-size:18px;" x="496.4501647949219" y="-13.290427207946777" id="TotalSum_inside_Left" transform="matrix(0.999922 0.0125281 -0.0125281 0.999922 -407.109 616.955)">
        <tspan x="496.4501647949219" id="TotalSum_inside_Left_tspan1">0 </tspan>
        <tspan dx="0" id="TotalSum_inside_Left_tspan2" fill="red">(0)</tspan>
    </text>
    <!-- Стрелка ИЗ перекрестка. Значения снизу  -->
    
    <text style="fill:black;font-family:Arial;font-size:18px;" x="1309.0408935546875" y="-28.126102447509766" id="TotalSum_outside_Right" transform="matrix(0.999922 0.0125281 -0.0125281 0.999922 -407.109 616.955)">
        <tspan x="1309.0408935546875" id="TotalSum_outside_Right_tspan1">0 </tspan>
        <tspan dx="0" id="TotalSum_outside_Right_tspan2" fill="red">(0)</tspan>
    </text>
    <text style="fill:black;font-family:Arial;font-size:18px;" x="-240.3098907470703" y="75.96041870117188" id="TotalSum_outside_Down" transform="matrix(-0.00908829 -0.999959 0.999959 -0.00908829 397.429 669.029)">
        <tspan x="-240.3098907470703" id="TotalSum_outside_Down_tspan1">0 </tspan>
        <tspan dx="0" id="TotalSum_outside_Down_tspan2" fill="red">(0)</tspan>
    </text>
    <text style="fill:black;font-family:Arial;font-size:18px;" x="499.6361083984375" y="-165.5202178955078" id="TotalSum_outside_Left" transform="matrix(0.999922 0.0125281 -0.0125281 0.999922 -407.109 616.955)">
        <tspan x="499.6361083984375" id="TotalSum_outside_Left_tspan1">0 </tspan>
        <tspan dx="0" id="TotalSum_outside_Left_tspan2" fill="red">(0)</tspan>
    </text>
    <!-- Названия направлений  -->
    
    <text style="fill:black;font-family:Arial;font-size:18px;" x="226.0" y="1008.0" id="StreetName_Right" transform="matrix(-0.00269868 -0.999996 0.999996 -0.00269868 15.4245 835.533)">Направление 2</text>
    <text style="fill:black;font-family:Arial;font-size:18px;" x="290.0" y="1515.5980224609375" id="StreetName_Down" transform="matrix(0.999997 -0.0021031 0.0021031 0.999997 128.073 -571.761)">Направление 3</text>
    <text style="fill:black;font-family:Arial;font-size:18px;" x="226.0" y="57.78267288208008" id="StreetName_Left" transform="matrix(-0.00269868 -0.999996 0.999996 -0.00269868 15.4245 835.533)">Направление 4</text>
    <!-- Пересекаемые улицы  -->
    
    <text style="fill:black;font-family:Arial;font-size:18px;" x="-100.34910583496094" y="713.3931274414062" id="StreetName_Vertical2" transform="matrix(-0.00269868 -0.999996 0.999996 -0.00269868 15.4245 835.533)">Улица вертикальная</text>
    <text style="fill:black;font-family:Arial;font-size:18px;" x="-41.89319610595703" y="1223.0010986328125" id="StreetName_Horizontal1" transform="matrix(0.999997 -0.0021031 0.0021031 0.999997 128.073 -571.761)">Улица горизонтальная</text>
    
    <!-- Дополнительная информация  -->
    <text style="fill:black;font-family:Arial;font-size:14px;stroke:none;" x="53.897396087646484" y="886.6403198242188" id="SectionOrIntersection">
        <tspan x="53.897396087646484" id="SectionOrIntersection_tspan1" style="font-weight: bold;">Участок/перекресток: </tspan>
        <tspan dx="0" id="SectionOrIntersection_tspan2"> </tspan>
    </text>
    <text style="fill:black;font-family:Arial;font-size:14px;" x="52.88630676269531" y="906.0911254882812" id="Date">
        <tspan x="52.88630676269531" id="Date_tspan1" style="font-weight: bold;">Дата: </tspan>
        <tspan dx="0" id="Date_tspan2"> </tspan>
    </text>
    <text style="fill:black;font-family:Arial;font-size:14px;" x="52.36008071899414" y="927.3670043945312" id="DayOfWeek">
        <tspan x="52.36008071899414" id="DayOfWeek_tspan1" style="font-weight: bold;">День недели: </tspan>
        <tspan dx="0" id="DayOfWeek_tspan2"> </tspan>
    </text>
    <text style="fill:black;font-family:Arial;font-size:14px;" x="52.22282028198242" y="947.8796997070312" id="Time">
        <tspan x="52.22282028198242" id="Time_tspan1" style="font-weight: bold;">Время: </tspan>
        <tspan dx="0" id="Time_tspan2"> </tspan>
    </text>
<line id="e1_line" x1="46.846189512442386" y1="355.0119712241523" x2="1040.3771815677203" y2="355.0119712241523" style="stroke:black;fill:none;stroke-width:2px;"/></svg>