<svg xmlns="http://www.w3.org/2000/svg" xmlns:xlink="http://www.w3.org/1999/xlink" version="1.1" preserveAspectRatio="xMidYMid meet" viewBox="52.84817886352539 22.586999893188477 973.6235961914062 937.4930419921875" width="549px" height="530px" >
    <rect id="svgEditorBackground" x="393.74776948173087" y="-276.63543701171875" width="972.8701379164211" height="937.4930419921875" style="fill: none; stroke: none;"/>
    <defs id="svgEditorDefs">
        <polygon id="svgEditorShapeDefs" style="fill:rosybrown;stroke:black;vector-effect:non-scaling-stroke;stroke-width:1px;"/>
    </defs>
    <defs>
        <path d="" id="dxt0pp92r"/>
        <path d="M246.24 251.21L246.24 86.67" id="afM8RxwbQ"/>
        <path d="M379.65 251.21L379.65 86.67" id="cfjMfgChV"/>
        <path d="M422.27 284.61L589.65 284.61" id="b5OxVNm4Y"/>
        <path d="M422.27 382.55L589.65 382.55" id="g77ZzNZA1"/>
        <path d="M246.24 587.45L246.24 422.91" id="f23XxzPdA"/>
        <path d="M379.65 587.45L379.65 422.91" id="dkQXXSdND"/>
        <path d="" id="bz9rRvdM"/>
        <path d="M379.65 422.91C383 396.95 397.21 383.5 422.27 382.55" id="afaO7SXaT"/>
        <path d="M379.65 251.21C383 272.69 397.21 283.83 422.27 284.61" id="cvbV071s0"/>
        <path d="M203.62 284.61L36.24 284.61" id="a5f9AhvgKh"/>
        <path d="M246.24 251.21C242.88 272.69 228.68 283.83 203.62 284.61" id="a2ZFH71Etu"/>
        <path d="M203.62 384.75L36.24 384.75" id="b1oZZ1esgB"/>
        <path d="" id="b27HAQObv"/>
        <path d="M246.24 425.11C242.88 399.15 228.68 385.7 203.62 384.75" id="a81I8t4SQv"/>
    </defs>
    <g transform="matrix(1.6488 0 0 1.6488 -12.9192 -114.197)">
        <g>
            <g>
                <g>
                    <use xlink:href="#dxt0pp92r" opacity="1" fill-opacity="0" stroke="#000000" stroke-width="1" stroke-opacity="1"/>
                </g>
            </g>
            <g>
                <g>
                    <use xlink:href="#afM8RxwbQ" opacity="1" fill-opacity="0" stroke="#000000" stroke-width="1" stroke-opacity="1"/>
                </g>
            </g>
            
            <g transform="matrix(1 0 0 1 49.167 0)">
                <g>
                    
                </g>
            </g>
            <g transform="matrix(1 0 0 1 49.167 60.8119)">
                <g>
                    
                </g>
            </g>
            <g transform="matrix(1 0 0 1 0 60.8119)">
                <g>
                    <use xlink:href="#f23XxzPdA" opacity="1" fill-opacity="0" stroke="#000000" stroke-width="1" stroke-opacity="1"/>
                </g>
            </g>
            
            <g>
                <g>
                    <use xlink:href="#bz9rRvdM" opacity="1" fill-opacity="0" stroke="#000000" stroke-width="1" stroke-opacity="1"/>
                </g>
            </g>
            <g transform="matrix(1 0 0 1 49.167 60.8119)">
                <g>
                    
                </g>
            </g>
            <g transform="matrix(1 0 0 1 49.167 0)">
                <g>
                    
                </g>
            </g>
            <g>
                <g>
                    <use xlink:href="#a5f9AhvgKh" opacity="1" fill-opacity="0" stroke="#000000" stroke-width="1" stroke-opacity="1"/>
                </g>
            </g>
            <g>
                <g>
                    <use xlink:href="#a2ZFH71Etu" opacity="1" fill-opacity="0" stroke="#000000" stroke-width="1" stroke-opacity="1"/>
                </g>
            </g>
            <g transform="matrix(1 0 0 1 0 60.8119)">
                <g>
                    <use xlink:href="#b1oZZ1esgB" opacity="1" fill-opacity="0" stroke="#000000" stroke-width="1" stroke-opacity="1"/>
                </g>
            </g>
            <g>
                <g>
                    <use xlink:href="#b27HAQObv" opacity="1" fill-opacity="0" stroke="#000000" stroke-width="1" stroke-opacity="1"/>
                </g>
            </g>
            <g transform="matrix(1 0 0 1 0 60.8119)">
                <g>
                    <use xlink:href="#a81I8t4SQv" opacity="1" fill-opacity="0" stroke="#000000" stroke-width="1" stroke-opacity="1"/>
                </g>
            </g>
        </g>
    </g>
    
    
    <path d="M-72.17349110759386,1.74282366369803v-1.9999999999999913l3.158420390304343,3.999999999999998l-3.158420390304343,3.9999999999999964v-1.9999999999999964h-4.841579609695657v-4.000000000000003Z" style="fill:black; stroke:black; vector-effect:non-scaling-stroke;stroke-width:1px;" id="Total_inside_Left_Arrow" transform="matrix(10.7734 0 0 3.71202 924.512 560.544)"/>
    <path d="M70.41569819493577,-45.938119186940924v-2l3.158420390304343,4l-3.158420390304343,4v-2h-4.841579609695543v-4Z" style="fill:black; stroke:black; vector-effect:non-scaling-stroke;stroke-width:1px;" id="Total_outside_Left_Arrow" transform="matrix(-10.7734 -0.0302691 0.0104293 -3.71201 885.97 257.813)"/>
    <path d="M-38.59541278669259,-86.4606283929405v-2l3.158420390304329,4l-3.158420390304329,4v-2h-4.841579609695671v-4Z" style="fill:black; stroke:black; vector-effect:non-scaling-stroke;stroke-width:1px;" id="Total_inside_Up_Arrow" transform="matrix(-0.012489 10.7734 -3.71202 -0.00430312 135.955 541.563)"/>
    <path d="M36.73079421646982,53.922593146664866v-2l3.1584203903043715,4l-3.1584203903043715,4v-1.9962106732048142h-4.841579609695643v-4.003789326795186Z" style="fill:black; stroke:black; vector-effect:non-scaling-stroke;stroke-width:1px;" id="Total_outside_Up_Arrow" transform="matrix(0.042758 -10.7734 3.712 0.0147324 434.675 503.372)"/>
    <path d="M31.37458479419651,-84.71182243840553v-2l3.158420390304361,4l-3.1584203903043573,4v-2h-4.841579609695646v-4Z" style="fill:black; stroke:black; vector-effect:non-scaling-stroke;stroke-width:1px;" id="Total_outside_Down_Arrow" transform="matrix(-0.012489 10.7734 -3.71202 -0.00430312 131.899 541.563)"/>
    <path d="M-33.074169779571235,55.45756108844132v-2l3.1584203903043786,4l-3.1584203903043786,4.000000000000028v-2.0000000000000497h-4.841579609695657v-3.9999999999999787Z" style="fill:black; stroke:black; vector-effect:non-scaling-stroke;stroke-width:1px;" id="Total_inside_Down_Arrow" transform="matrix(0.042758 -10.7734 3.712 0.0147324 434.675 503.372)"/>
    
    
    
    
    <path d="M30.72117187866327,-20.029558300283327a1.8,1.8,0,1,0,0,-3.6000000000000014h-2v1l-1.25,-1.625l1.25,-1.625v1h2a2.25,2.25,0,0,1,0,6.25Z" style="fill:black; stroke:black; vector-effect:non-scaling-stroke;stroke-width:1px;" id="Down_around_Arrow" transform="matrix(0.00918477 -5.91972 5.91972 0.00918477 608.432 841.395)"/>
    <path d="M-24.271924408641432,-34.48183014014654l1.25,-1.5625v1.25a8,8,0,0,1,5.86106413859774,5.513821449903329a149.210846,149.210846,0,0,0,-2.6874364113161278,-0.055641374450232206a4.17042,4.17042,0,0,0,-3.1736277272816125,-4.708180075453097v1.25Z" style="fill:black; stroke:black; vector-effect:non-scaling-stroke;stroke-width:1px;" id="Down_left_Arrow" transform="matrix(5.48497 -0.0129675 0.0129675 5.48497 665.299 840.103)"/>
    <path d="M39.721591396344486,-90.48815582236041v-2l3.1584203903043715,4l-3.1584203903043715,4v-2h-4.8415796096956285v-4Z" style="fill:black; stroke:black; vector-effect:non-scaling-stroke;stroke-width:1px;" id="Down_forward_Arrow" transform="matrix(0.00311775 -6.86452 2.36519 0.00107421 823.895 930.519)"/>
    
    <path d="M28.347808634943263,17.36114589927415a1.8,1.8,0,1,0,0,-3.599999999999998h-2v1l-1.25,-1.6250000000000036l1.25,-1.6249999999999964v1h2a2.25,2.25,0,0,1,0,6.2499999999999964Z" style="fill:black; stroke:black; vector-effect:non-scaling-stroke;stroke-width:1px;" id="Up_around_Arrow" transform="matrix(-0.0203657 5.91969 -5.91969 -0.0203657 704.572 134.067)"/>
    
    <path d="M37.900730964631336,-24.247499296057654v-2l3.1584203903043715,4l-3.1584203903043715,4v-2h-4.841579609695643v-4Z" style="fill:black; stroke:black; vector-effect:non-scaling-stroke;stroke-width:1px;" id="Up_forward_Arrow" transform="matrix(-0.0160832 6.8645 -2.36518 -0.00554151 489.279 44.5352)"/>
    <path d="M23.416486734382183,-33.052492786860405l-1.249999999999993,-1.5625v1.25a8,8,0,0,0,-5.954305842919204,5.621660721341286a37.569937,37.569937,0,0,1,2.7523917764229537,0.041253092613910525a4.304151,4.304151,0,0,1,3.2019140664962507,-4.912913813955196v1.249999999999993Z" style="fill:black; stroke:black; vector-effect:non-scaling-stroke;stroke-width:1px;" id="Up_right_Arrow" transform="matrix(-5.55229 0.11306 -0.11306 -5.55229 582.319 123.213)"/>
    <path d="M59.27239309167211,49.9628984244747a1.8,1.8,0,1,0,0,-3.5999999999999943h-2v1l-1.25,-1.625000000000007l1.25,-1.624999999999993v1h2a2.25,2.25,0,0,1,0,6.249999999999993Z" style="fill:black; stroke:black; vector-effect:non-scaling-stroke;stroke-width:1px;" id="Left_around_Arrow" transform="matrix(5.9196 0.0389758 -0.0389758 5.9196 -0.850919 115.831)"/>
    <path d="M52.42821241294037,-65.01145859402985l1.25,-1.5625v1.25a8,8,0,0,1,5.861064138597754,5.513821449903354a149.210846,149.210846,0,0,0,-2.687436411316142,-0.055641374450232206a4.17042,4.17042,0,0,0,-3.1736277272816125,-4.708180075453122v1.2500000000000213Z" style="fill:black; stroke:black; vector-effect:non-scaling-stroke;stroke-width:1px;" id="Left_left_Arrow" transform="matrix(-0.014636 5.48497 -5.48497 -0.014636 0.154885 172.703)"/>
    
    <path d="M62.70890891598034,-65.09831693847262l-1.25,-1.5625000000000142v1.25a8,8,0,0,0,-5.954305842919204,5.621660721341328a37.569937,37.569937,0,0,1,2.7523917764229537,0.04125309261391408a4.304151,4.304151,0,0,1,3.2019140664962507,-4.912913813955228v1.2500000000000284Z" style="fill:black; stroke:black; vector-effect:non-scaling-stroke;stroke-width:1px;" id="Left_right_Arrow" transform="matrix(0.0956043 5.55262 -5.55262 0.0956043 -12.0891 238.049)"/>
    <text dy="-0.5em" style="fill:black;font-family:Arial;font-size:20px;" id="e4_text"/>
    <text dy="-0.5em" style="fill:black;font-family:Arial;font-size:20px;" id="e2_text" transform="matrix(1 0 0 1 -225.972 62.5768)"/>
    <text dy="-0.5em" style="fill:black;font-family:Arial;font-size:20px;" id="e6_text"/>
    <text dy="-0.5em" style="fill:black;font-family:Arial;font-size:20px;" id="e8_text"/>
    <!-- Стрелка В перекресток. Значения сверху  -->
    <text style="fill:black;font-family:Arial;font-size:20px;" x="473.42291259765625" y="115.83833312988281" id="Total_inside_Up" transform="matrix(-0.012085 -0.999927 0.999927 -0.012085 314.185 608.746)">
        <tspan x="446.8866271972656" id="Total_inside_Up" style="font-size:18px;">0-0-0</tspan>
    </text>
    
    <text style="fill:black;font-family:Arial;font-size:20px;" x="458.1480712890625" y="314.2958679199219" id="Total_inside_Down" transform="matrix(-0.012085 -0.999927 0.999927 -0.012085 316.503 1345.76)">
        <tspan x="433.48187255859375" id="Total_inside_Down" style="font-size:18px;">0-0-0</tspan>
    </text>
    <text style="fill:black;font-family:Arial;font-size:20px;" x="475.50469970703125" y="116.74330139160156" id="Total_inside_Left" transform="matrix(0.999945 0.010533 -0.010533 0.999945 -383.479 426.137)">     
        <tspan x="475.50494384765625" style="font-size:18px;" id="e4_span">0-0-0</tspan>
    </text>
    <!-- Стрелка ИЗ перекрестка. Значения сверху  -->
    <text style="fill:black;font-family:Arial;font-size:20px;" x="472.25909423828125" y="313.774658203125" id="Total_outside_Up" transform="matrix(-0.012085 -0.999927 0.999927 -0.012085 314.185 608.746)">
        <tspan x="442.5503845214844" id="Total_outside_Up" style="font-size:18px;">0-0-0</tspan>
    </text>
    
    <text style="fill:black;font-family:Arial;font-size:20px;" x="460.02685546875" y="105.14507293701172" id="Total_outside_Down" transform="matrix(-0.012085 -0.999927 0.999927 -0.012085 316.503 1345.76)">
        <tspan x="435.2645568847656" id="Total_outside_Down" style="font-size:18px;">0-0-0</tspan>
    </text>
    <text style="fill:black;font-family:Arial;font-size:18px;" x="476.730712890625" y="-39.01933288574219" id="Total_outside_Left" transform="matrix(0.999945 0.010533 -0.010533 0.999945 -383.479 426.137)">
        <tspan x="476.730712890625" id="e5_tspan">0-0-0</tspan>
    </text>
    <!-- Маленькие стрелки  -->
    <!-- Группа разворота  -->
    <text style="fill:black;font-family:Arial;font-size:16px;" x="344.6045837402344" y="307.6239013671875" id="Up_around" transform="matrix(-0.012085 -0.999927 0.999927 -0.012085 314.185 608.746)">
        <tspan x="344.6045837402344" id="Up_around_tspan1">0-0-0 </tspan>
        <tspan dx="0" id="Up_around_tspan2" fill="red">(0)</tspan>
    </text>
    
    <text style="fill:black;font-family:Arial;font-size:16px;" x="-193.5815887451172" y="164.7036590576172" id="Down_around" transform="matrix(-0.012085 -0.999927 0.999927 -0.012085 314.185 608.746)">
        <tspan x="-193.5815887451172" id="Down_around_tspan1">0-0-0 </tspan>
        <tspan dx="0" id="Down_around_tspan2" fill="red">(0)</tspan>
    </text>
    <text style="fill:black;font-family:Arial;font-size:16px;" x="665.51513671875" y="-17.708627700805664" id="Left_around" transform="matrix(0.999945 0.010533 -0.010533 0.999945 -383.479 426.137)">
        <tspan x="599.4157104492188" id="Left_around_tspan1">0-0-0 </tspan>
        <tspan dx="0" id="Left_around_tspan2" fill="red">(0)</tspan>
    </text>
    <!-- Группа правого поворота  -->
    <text style="fill:black;font-family:Arial;font-size:16px;" x="346.21826171875" y="168.36090087890625" id="Up_right" transform="matrix(-0.012085 -0.999927 0.999927 -0.012085 314.185 608.746)">
        <tspan x="346.21826171875" id="Up_right_tspan1">0-0-0 </tspan>
        <tspan dx="0" id="Up_right_tspan2" fill="red">(0)</tspan>
    </text>
    
    
    <text style="fill:black;font-family:Arial;font-size:16px;" x="601.4764404296875" y="130.60887145996094" id="Left_right" transform="matrix(0.999945 0.010533 -0.010533 0.999945 -383.479 426.137)">
        <tspan x="601.4764404296875" id="Left_right_tspan1">0-0-0 </tspan>
        <tspan dx="0" id="Left_right_tspan2" fill="red">(0)</tspan>
    </text>
    <!-- Группа прямого проезда  -->
    <text style="fill:black;font-family:Arial;font-size:16px;" x="345.45062255859375" y="237.6373748779297" id="Up_forward" transform="matrix(-0.012085 -0.999927 0.999927 -0.012085 314.185 608.746)">
        <tspan x="345.45062255859375" id="Up_forward_tspan1">0-0-0 </tspan>
        <tspan dx="0" id="Up_forward_tspan2" fill="red">(0)</tspan>
    </text>
    
    <text style="fill:black;font-family:Arial;font-size:16px;" x="-169.94247436523438" y="304.8608093261719" id="Down_forward" transform="matrix(-0.012085 -0.999927 0.999927 -0.012085 314.185 608.746)">
        <tspan x="-197.73143005371094" id="Down_forward_tspan1">0-0-0 </tspan>
        <tspan dx="0" id="Down_forward_tspan2" fill="red">(0)</tspan>
    </text>
    
    <!-- Группа поворота направо  -->
    
    
    <text style="fill:black;font-family:Arial;font-size:16px;" x="-194.93360900878906" y="234.38912963867188" id="Down_left" transform="matrix(-0.012085 -0.999927 0.999927 -0.012085 314.185 608.746)">
        <tspan x="-194.93360900878906" id="Down_Left_tspan1">0-0-0 </tspan>
        <tspan dx="0" id="Down_Left_tspan2" fill="red">(0)</tspan>
    </text>
    <text style="fill:black;font-family:Arial;font-size:16px;" x="600.0464477539062" y="49.88685989379883" id="Left_left" transform="matrix(0.999945 0.010533 -0.010533 0.999945 -383.479 426.137)">
        <tspan x="600.0464477539062" id="Left_Left_tspan1">0-0-0 </tspan>
        <tspan dx="0" id="Left_Left_tspan2" fill="red">(0)</tspan>
    </text>
    
    <!-- Стрелка В перекресток. Значения снизу  -->
    <text style="fill:black;font-family:Arial;font-size:18px;" x="510.4317321777344" y="93.39720153808594" id="TotalSum_inside_Up" transform="matrix(-0.00908829 -0.999959 0.999959 -0.00908829 397.429 669.029)">
        <tspan x="510.4317321777344" id="TotalSum_inside_Up_tspan1">0 </tspan>
        <tspan dx="0" id="TotalSum_inside_Up_tspan2" fill="red">(0)</tspan>
    </text>
    
    <text style="fill:black;font-family:Arial;font-size:18px;" x="-239.96420288085938" y="282.0859375" id="TotalSum_inside_Down" transform="matrix(-0.00908829 -0.999959 0.999959 -0.00908829 397.429 669.029)">
        <tspan x="-239.96420288085938" id="TotalSum_inside_Down_tspan1">0 </tspan>
        <tspan dx="0" id="TotalSum_inside_Down_tspan2" fill="red">(0)</tspan>
    </text>  
    <text style="fill:black;font-family:Arial;font-size:18px;" x="496.4501647949219" y="-13.290427207946777" id="TotalSum_inside_Left" transform="matrix(0.999922 0.0125281 -0.0125281 0.999922 -407.109 616.955)">
        <tspan x="496.4501647949219" id="TotalSum_inside_Left_tspan1">0 </tspan>
        <tspan dx="0" id="TotalSum_inside_Left_tspan2" fill="red">(0)</tspan>
    </text>
    <!-- Стрелка ИЗ перекрестка. Значения снизу  -->
    <text style="fill:black;font-family:Arial;font-size:18px;" x="506.4599609375" y="286.2164001464844" id="TotalSum_outside_Up" transform="matrix(-0.00908829 -0.999959 0.999959 -0.00908829 397.429 669.029)">
        <tspan x="506.4599609375" id="TotalSum_outside_Up_tspan1">0 </tspan>
        <tspan dx="0" id="TotalSum_outside_Up_tspan2" fill="red">(0)</tspan>
    </text>
    
    <text style="fill:black;font-family:Arial;font-size:18px;" x="-240.3098907470703" y="75.96041870117188" id="TotalSum_outside_Down" transform="matrix(-0.00908829 -0.999959 0.999959 -0.00908829 397.429 669.029)">
        <tspan x="-240.3098907470703" id="TotalSum_outside_Down_tspan1">0 </tspan>
        <tspan dx="0" id="TotalSum_outside_Down_tspan2" fill="red">(0)</tspan>
    </text>
    <text style="fill:black;font-family:Arial;font-size:18px;" x="499.6361083984375" y="-165.5202178955078" id="TotalSum_outside_Left" transform="matrix(0.999922 0.0125281 -0.0125281 0.999922 -407.109 616.955)">
        <tspan x="499.6361083984375" id="TotalSum_outside_Left_tspan1">0 </tspan>
        <tspan dx="0" id="TotalSum_outside_Left_tspan2" fill="red">(0)</tspan>
    </text>
    <!-- Названия направлений  -->
    <text style="fill:black;font-family:Arial;font-size:18px;" text-anchor="middle" x="42.5%" y="618.9735717773438" id="StreetName_Up" transform="matrix(0.999997 -0.0021031 0.0021031 0.999997 128.073 -571.761)">Направление 1</text>
    
    <text style="fill:black;font-family:Arial;font-size:18px;" text-anchor="middle" x="42.5%" y="1515.5980224609375" id="StreetName_Down" transform="matrix(0.999997 -0.0021031 0.0021031 0.999997 128.073 -571.761)">Направление 3</text>
    <text style="fill:black;font-family:Arial;font-size:18px;" text-anchor="middle" x="35.5%" y="57.78267288208008" id="StreetName_Left" transform="matrix(-0.00269868 -0.999996 0.999996 -0.00269868 15.4245 835.533)">Направление 4</text>
    <!-- Пересекаемые улицы  -->
    
    <text style="fill:black;font-family:Arial;font-size:18px;" x="249.535400390625" y="718.1405639648438" id="StreetName_Vertical2" transform="matrix(-0.00269868 -0.999996 0.999996 -0.00269868 15.4245 835.533)">Улица вертикальная</text>
    <text style="fill:black;font-family:Arial;font-size:18px;" x="-41.89319610595703" y="1223.0010986328125" id="StreetName_Horizontal1" transform="matrix(0.999997 -0.0021031 0.0021031 0.999997 128.073 -571.761)">Улица горизонтальная</text>
    
    <!-- Дополнительная информация  -->
    <text style="fill:black;font-family:Arial;font-size:14px;stroke:none;" x="53.897396087646484" y="886.6403198242188" id="SectionOrIntersection">
        <tspan x="53.897396087646484" id="SectionOrIntersection_tspan1" style="font-weight: bold;">Участок/перекресток: </tspan>
        <tspan dx="0" id="SectionOrIntersection_tspan2"> </tspan>
    </text>
    <text style="fill:black;font-family:Arial;font-size:14px;" x="52.88630676269531" y="906.0911254882812" id="Date">
        <tspan x="52.88630676269531" id="Date_tspan1" style="font-weight: bold;">Дата: </tspan>
        <tspan dx="0" id="Date_tspan2"> </tspan>
    </text>
    <text style="fill:black;font-family:Arial;font-size:14px;" x="52.36008071899414" y="927.3670043945312" id="DayOfWeek">
        <tspan x="52.36008071899414" id="DayOfWeek_tspan1" style="font-weight: bold;">День недели: </tspan>
        <tspan dx="0" id="DayOfWeek_tspan2"> </tspan>
    </text>
    <text style="fill:black;font-family:Arial;font-size:14px;" x="52.22282028198242" y="947.8796997070312" id="Time">
        <tspan x="52.22282028198242" id="Time_tspan1" style="font-weight: bold;">Время: </tspan>
        <tspan dx="0" id="Time_tspan2"> </tspan>
    </text>
<line id="e1_line" x1="693.9278855468873" y1="28.76723525103401" x2="694.1655866224431" y2="954.6129245409861" style="stroke:black;fill:none;stroke-width:2px;"/></svg>