<svg xmlns="http://www.w3.org/2000/svg" xmlns:xlink="http://www.w3.org/1999/xlink" version="1.1" preserveAspectRatio="xMidYMid meet" viewBox="53.01384353637695 22.586999893188477 973.2922973632812 937.4930419921875" width="549px" height="530px" >
    <rect id="svgEditorBackground" x="326.6813531551721" y="640.70849609375" width="486.43506895821054" height="468.74652099609375" style="fill:none; stroke: none;"/>
    <defs id="svgEditorDefs">
        <polygon id="svgEditorShapeDefs" style="fill:rosybrown;stroke:black;vector-effect:non-scaling-stroke;stroke-width:1px;"/>
    </defs>
    <defs>
        <path d="" id="dxt0pp92r"/>
        <path d="M246.24 251.21L246.24 86.67" id="afM8RxwbQ"/>
        <path d="M379.65 251.21L379.65 86.67" id="cfjMfgChV"/>
        <path d="M422.27 284.61L589.65 284.61" id="b5OxVNm4Y"/>
        <path d="M422.27 382.55L589.65 382.55" id="g77ZzNZA1"/>
        <path d="M246.24 587.45L246.24 422.91" id="f23XxzPdA"/>
        <path d="M379.65 587.45L379.65 422.91" id="dkQXXSdND"/>
        <path d="" id="bz9rRvdM"/>
        <path d="M379.65 422.91C383 396.95 397.21 383.5 422.27 382.55" id="afaO7SXaT"/>
        <path d="M379.65 251.21C383 272.69 397.21 283.83 422.27 284.61" id="cvbV071s0"/>
        <path d="M203.62 284.61L36.24 284.61" id="a5f9AhvgKh"/>
        <path d="M246.24 251.21C242.88 272.69 228.68 283.83 203.62 284.61" id="a2ZFH71Etu"/>
        <path d="M203.62 384.75L36.24 384.75" id="b1oZZ1esgB"/>
        <path d="" id="b27HAQObv"/>
        <path d="M246.24 425.11C242.88 399.15 228.68 385.7 203.62 384.75" id="a81I8t4SQv"/>
    </defs>
    <g transform="matrix(1.6488 0 0 1.6488 -12.9192 -114.197)">
        <g>
            <g>
                <g>
                    <use xlink:href="#dxt0pp92r" opacity="1" fill-opacity="0" stroke="#000000" stroke-width="1" stroke-opacity="1"/>
                </g>
            </g>
            <g>
                <g>
                    <use xlink:href="#afM8RxwbQ" opacity="1" fill-opacity="0" stroke="#000000" stroke-width="1" stroke-opacity="1"/>
                </g>
            </g>
            <g transform="matrix(1 0 0 1 49.167 0)">
                <g>
                    <use xlink:href="#cfjMfgChV" opacity="1" fill-opacity="0" stroke="#000000" stroke-width="1" stroke-opacity="1"/>
                </g>
            </g>
            <g transform="matrix(1 0 0 1 49.167 0)">
                <g>
                    <use xlink:href="#b5OxVNm4Y" opacity="1" fill-opacity="0" stroke="#000000" stroke-width="1" stroke-opacity="1"/>
                </g>
            </g>
            
            
            
            <g>
                <g>
                    <use xlink:href="#bz9rRvdM" opacity="1" fill-opacity="0" stroke="#000000" stroke-width="1" stroke-opacity="1"/>
                </g>
            </g>
            
            <g transform="matrix(1 0 0 1 49.167 0)">
                <g>
                    <use xlink:href="#cvbV071s0" opacity="1" fill-opacity="0" stroke="#000000" stroke-width="1" stroke-opacity="1"/>
                </g>
            </g>
            <g>
                <g>
                    <use xlink:href="#a5f9AhvgKh" opacity="1" fill-opacity="0" stroke="#000000" stroke-width="1" stroke-opacity="1"/>
                </g>
            </g>
            <g>
                <g>
                    <use xlink:href="#a2ZFH71Etu" opacity="1" fill-opacity="0" stroke="#000000" stroke-width="1" stroke-opacity="1"/>
                </g>
            </g>
            
            <g>
                <g>
                    <use xlink:href="#b27HAQObv" opacity="1" fill-opacity="0" stroke="#000000" stroke-width="1" stroke-opacity="1"/>
                </g>
            </g>
            
        </g>
    </g>
    <path d="M3.2804971134340315,0.12408909115598024v-1.9999999999999991l3.158420390304358,3.999999999999999l-3.158420390304359,4.0000000000000036v-2.0000000000000036h-4.841579609695643v-4Z" style="fill:black; stroke:black; vector-effect:non-scaling-stroke;stroke-width:1px;" id="Total_outside_Right_Arrow" transform="matrix(10.7734 0 0 3.71202 924.512 560.544)"/>
    <path d="M-4.794733837820497,-45.612184651600195v-2l3.1584203903043595,4l-3.1584203903043595,4v-2h-4.841579609695644v-4Z" style="fill:black; stroke:black; vector-effect:non-scaling-stroke;stroke-width:1px;" id="Total_inside_Right_Arrow" transform="matrix(-10.7734 -0.0302691 0.0104293 -3.71201 885.97 257.813)"/>
    <path d="M-72.17349110759386,1.74282366369803v-1.9999999999999913l3.158420390304343,3.999999999999998l-3.158420390304343,3.9999999999999964v-1.9999999999999964h-4.841579609695657v-4.000000000000003Z" style="fill:black; stroke:black; vector-effect:non-scaling-stroke;stroke-width:1px;" id="Total_inside_Left_Arrow" transform="matrix(10.7734 0 0 3.71202 924.512 560.544)"/>
    <path d="M70.41569819493577,-45.938119186940924v-2l3.158420390304343,4l-3.158420390304343,4v-2h-4.841579609695543v-4Z" style="fill:black; stroke:black; vector-effect:non-scaling-stroke;stroke-width:1px;" id="Total_outside_Left_Arrow" transform="matrix(-10.7734 -0.0302691 0.0104293 -3.71201 885.97 257.813)"/>
    <path d="M-38.59541278669259,-86.4606283929405v-2l3.158420390304329,4l-3.158420390304329,4v-2h-4.841579609695671v-4Z" style="fill:black; stroke:black; vector-effect:non-scaling-stroke;stroke-width:1px;" id="Total_inside_Up_Arrow" transform="matrix(-0.012489 10.7734 -3.71202 -0.00430312 135.955 541.563)"/>
    <path d="M36.73079421646982,53.922593146664866v-2l3.1584203903043715,4l-3.1584203903043715,4v-1.9962106732048142h-4.841579609695643v-4.003789326795186Z" style="fill:black; stroke:black; vector-effect:non-scaling-stroke;stroke-width:1px;" id="Total_outside_Up_Arrow" transform="matrix(0.042758 -10.7734 3.712 0.0147324 434.675 503.372)"/>
    
    
    <path d="M-3.5534945663071387,0.8173672673355871a1.8,1.8,0,1,0,0,-3.6000000000000028h-2v1.0000000000000009l-1.2500000000000018,-1.6250000000000004l1.2500000000000018,-1.6250000000000004v1h2a2.25,2.25,0,0,1,0,6.250000000000001Z" style="fill:black; stroke:black; vector-effect:non-scaling-stroke;stroke-width:1px;" id="Right_around_Arrow" transform="matrix(-5.91968 -0.0231282 0.0231282 -5.91968 711.879 549.504)"/>
    
    <path d="M10.403395968613054,-65.29359571694752v-2l3.1584203903043644,4l-3.1584203903043644,4v-2h-4.8415796096956365v-4Z" style="fill:black; stroke:black; vector-effect:non-scaling-stroke;stroke-width:1px;" id="Right_forward_Arrow" transform="matrix(-6.86449 -0.0192866 0.00664524 -2.36518 801.511 334.252)"/>
    <path d="M6.305633115706371,0.5525947254308934l-1.2499999999999964,-1.5624999999999993v1.2500000000000009a8,8,0,0,0,-5.9543058429192,5.621660721341284a37.569937,37.569937,0,0,1,2.7523917764229546,0.04125309261391763a4.304151,4.304151,0,0,1,3.201914066496247,-4.9129138139552015v1.2500000000000004Z" style="fill:black; stroke:black; vector-effect:non-scaling-stroke;stroke-width:1px;" id="Right_right_Arrow" transform="matrix(-0.110469 -5.55234 5.55234 -0.110469 722.79 427.256)"/>
    
    
    
    
    <path d="M30.435397532887123,14.805839646443275a1.8,1.8,0,1,0,0,-3.599999999999998h-2v1l-1.25,-1.6250000000000036l1.25,-1.6249999999999964v1h2a2.25,2.25,0,0,1,0,6.2499999999999964Z" style="fill:black; stroke:black; vector-effect:non-scaling-stroke;stroke-width:1px;" id="Up_around_Arrow" transform="matrix(-0.0203657 5.91969 -5.91969 -0.0203657 704.572 134.067)"/>
    <path d="M14.498491087186716,-34.02890507281404l1.2499999999999982,-1.5625000000000142v1.25a8,8,0,0,1,5.861064138597747,5.513821449903343a149.210846,149.210846,0,0,0,-2.687436411316135,-0.055641374450232206a4.17042,4.17042,0,0,0,-3.1736277272816125,-4.708180075453097v1.25Z" style="fill:black; stroke:black; vector-effect:non-scaling-stroke;stroke-width:1px;" id="Up_left_Arrow" transform="matrix(-5.48499 0.00260761 -0.00260761 -5.48499 647.703 135.251)"/>
    
    <path d="M25.27295018977083,-35.56908942355673l-1.249999999999993,-1.5625v1.25a8,8,0,0,0,-5.954305842919204,5.621660721341279a37.569937,37.569937,0,0,1,2.7523917764229537,0.04125309261391408a4.304151,4.304151,0,0,1,3.2019140664962507,-4.912913813955193v1.25Z" style="fill:black; stroke:black; vector-effect:non-scaling-stroke;stroke-width:1px;" id="Up_right_Arrow" transform="matrix(-5.55229 0.11306 -0.11306 -5.55229 582.319 123.213)"/>
    <path d="M61.08501420192898,52.3468633234705a1.8,1.8,0,1,0,0,-3.5999999999999943h-2v1l-1.25,-1.625l1.25,-1.625v1h2a2.25,2.25,0,0,1,0,6.25Z" style="fill:black; stroke:black; vector-effect:non-scaling-stroke;stroke-width:1px;" id="Left_around_Arrow" transform="matrix(5.9196 0.0389758 -0.0389758 5.9196 -0.850919 115.831)"/>
    <path d="M54.820968169600704,-66.95715660003478l1.25,-1.5625v1.25a8,8,0,0,1,5.86106413859774,5.5138214499034035a149.210846,149.210846,0,0,0,-2.687436411316135,-0.055641374450232206a4.17042,4.17042,0,0,0,-3.1736277272816054,-4.708180075453171v1.250000000000071Z" style="fill:black; stroke:black; vector-effect:non-scaling-stroke;stroke-width:1px;" id="Left_left_Arrow" transform="matrix(-0.014636 5.48497 -5.48497 -0.014636 0.154885 172.703)"/>
    <path d="M67.31767989113762,93.06852070787292v-2l3.1584203903043715,4l-3.1584203903043715,4v-2h-4.841579609695614v-4Z" style="fill:black; stroke:black; vector-effect:non-scaling-stroke;stroke-width:1px;" id="Left_forward_Arrow" transform="matrix(6.86442 0.0376636 -0.0129771 2.36515 -91.0589 330.841)"/>
    
    <text dy="-0.5em" style="fill:black;font-family:Arial;font-size:20px;" id="e4_text"/>
    <text dy="-0.5em" style="fill:black;font-family:Arial;font-size:20px;" id="e2_text" transform="matrix(1 0 0 1 -225.972 62.5768)"/>
    <text dy="-0.5em" style="fill:black;font-family:Arial;font-size:20px;" id="e6_text"/>
    <text dy="-0.5em" style="fill:black;font-family:Arial;font-size:20px;" id="e8_text"/>
    <!-- Стрелка В перекресток. Значения сверху  -->
    <text style="fill:black;font-family:Arial;font-size:20px;" x="473.42291259765625" y="115.83833312988281" id="Total_inside_Up" transform="matrix(-0.012085 -0.999927 0.999927 -0.012085 314.185 608.746)">
        <tspan x="446.8866271972656" id="Total_inside_Up" style="font-size:18px;">0-0-0</tspan>
    </text>
    <text style="fill:black;font-family:Arial;font-size:20px;" x="1289.3831787109375" y="-48.15892028808594" id="Total_inside_Right" transform="matrix(0.999945 0.010533 -0.010533 0.999945 -383.479 426.137)">
        <tspan x="1289.3831787109375" id="Total_inside_Right" style="font-size:18px;">0-0-0</tspan>
    </text>
    
    <text style="fill:black;font-family:Arial;font-size:20px;" x="475.50469970703125" y="116.74330139160156" id="Total_inside_Left" transform="matrix(0.999945 0.010533 -0.010533 0.999945 -383.479 426.137)">     
        <tspan x="475.50494384765625" style="font-size:18px;" id="e4_span">0-0-0</tspan>
    </text>
    <!-- Стрелка ИЗ перекрестка. Значения сверху  -->
    <text style="fill:black;font-family:Arial;font-size:20px;" x="472.25909423828125" y="313.774658203125" id="Total_outside_Up" transform="matrix(-0.012085 -0.999927 0.999927 -0.012085 314.185 608.746)">
        <tspan x="442.5503845214844" id="Total_outside_Up" style="font-size:18px;">0-0-0</tspan>
    </text>
    <text style="fill:black;font-family:Arial;font-size:20px;" x="1244.122314453125" y="106.35125732421875" id="Total_outside_Right" transform="matrix(0.999945 0.010533 -0.010533 0.999945 -383.479 426.137)">
        <tspan x="1294.122314453125" id="Total_outside_Right" style="font-size:18px;">0-0-0</tspan>
    </text>
    
    <text style="fill:black;font-family:Arial;font-size:18px;" x="476.730712890625" y="-39.01933288574219" id="Total_outside_Left" transform="matrix(0.999945 0.010533 -0.010533 0.999945 -383.479 426.137)">
        <tspan x="476.730712890625" id="e5_tspan">0-0-0</tspan>
    </text>
    <!-- Маленькие стрелки  -->
    <!-- Группа разворота  -->
    <text style="fill:black;font-family:Arial;font-size:16px;" x="332.01336669921875" y="322.5568542480469" id="Up_around" transform="matrix(-0.012085 -0.999927 0.999927 -0.012085 314.185 608.746)">
        <tspan x="332.01336669921875" id="Up_around_tspan1">0-0-0 </tspan>
        <tspan dx="0" id="Up_around_tspan2" fill="red">(0)</tspan>
    </text>
    <text style="fill:black;font-family:Arial;font-size:16px;" x="1164.5516357421875" y="121.23075866699219" id="Right_around" transform="matrix(0.999945 0.010533 -0.010533 0.999945 -383.479 426.137)">
        <tspan x="1164.5516357421875" id="Right_around_tspan1">0-0-0 </tspan>
        <tspan dx="0" id="Right_around_tspan2" fill="red">(0)</tspan>
    </text>
    
    <text style="fill:black;font-family:Arial;font-size:16px;" x="660.3462524414062" y="-3.470635414123535" id="Left_around" transform="matrix(0.999945 0.010533 -0.010533 0.999945 -383.479 426.137)">
        <tspan x="594.246826171875" id="Left_around_tspan1">0-0-0 </tspan>
        <tspan dx="0" id="Left_around_tspan2" fill="red">(0)</tspan>
    </text>
    <!-- Группа правого поворота  -->
    <text style="fill:black;font-family:Arial;font-size:16px;" x="332.1577453613281" y="158.16712951660156" id="Up_right" transform="matrix(-0.012085 -0.999927 0.999927 -0.012085 314.185 608.746)">
        <tspan x="332.1577453613281" id="Up_right_tspan1">0-0-0 </tspan>
        <tspan dx="0" id="Up_right_tspan2" fill="red">(0)</tspan>
    </text>
    <text style="fill:black;font-family:Arial;font-size:16px;" x="1162.731201171875" y="-8.217717170715332" id="Right_right" transform="matrix(0.999945 0.010533 -0.010533 0.999945 -383.479 426.137)">
        <tspan x="1162.731201171875" id="Right_right_tspan1">0-0-0 </tspan>
        <tspan dx="0" id="Right_right_tspan2" fill="red">(0)</tspan>
    </text>
    
    
    <!-- Группа прямого проезда  -->
    
    <text style="fill:black;font-family:Arial;font-size:16px;" x="1164.443603515625" y="55.97084045410156" id="Right_forward" transform="matrix(0.999945 0.010533 -0.010533 0.999945 -383.479 426.137)">
        <tspan x="1164.443603515625" id="Right_forward_tspan2">0-0-0 </tspan>
        <tspan dx="0" id="Right_forward_tspan2" fill="red">(0)</tspan>
    </text>
    
    <text style="fill:black;font-family:Arial;font-size:16px;" x="595.6869506835938" y="129.2985076904297" id="Left_forward" transform="matrix(0.999945 0.010533 -0.010533 0.999945 -383.479 426.137)">
        <tspan x="595.6869506835938" id="Left_forward_tspan1">0-0-0 </tspan>
        <tspan dx="0" id="Left_forward_tspan2" fill="red">(0)</tspan>
    </text>
    <!-- Группа поворота направо  -->
    <text style="fill:black;font-family:Arial;font-size:16px;" x="332.8503112792969" y="247.5761260986328" id="Up_left" transform="matrix(-0.012085 -0.999927 0.999927 -0.012085 314.185 608.746)">
        <tspan x="332.8503112792969" id="Up_Left_tspan1">0-0-0 </tspan>
        <tspan dx="0" id="Up_Left_tspan2" fill="red">(0)</tspan>
    </text>
    
    
    <text style="fill:black;font-family:Arial;font-size:16px;" x="594.8668212890625" y="63.094818115234375" id="Left_left" transform="matrix(0.999945 0.010533 -0.010533 0.999945 -383.479 426.137)">
        <tspan x="594.8668212890625" id="Left_Left_tspan1">0-0-0 </tspan>
        <tspan dx="0" id="Left_Left_tspan2" fill="red">(0)</tspan>
    </text>
    
    <!-- Стрелка В перекресток. Значения снизу  -->
    <text style="fill:black;font-family:Arial;font-size:18px;" x="510.4317321777344" y="93.39720153808594" id="TotalSum_inside_Up" transform="matrix(-0.00908829 -0.999959 0.999959 -0.00908829 397.429 669.029)">
        <tspan x="510.4317321777344" id="TotalSum_inside_Up_tspan1">0 </tspan>
        <tspan dx="0" id="TotalSum_inside_Up_tspan2" fill="red">(0)</tspan>
    </text>
    <text style="fill:black;font-family:Arial;font-size:18px;" x="1307.4407958984375" y="-173.64833068847656" id="TotalSum_inside_Right" transform="matrix(0.999922 0.0125281 -0.0125281 0.999922 -407.109 616.955)">
        <tspan x="1307.4407958984375" id="TotalSum_inside_Right_tspan1">0 </tspan>
        <tspan dx="0" id="TotalSum_inside_Right_tspan2" fill="red">(0)</tspan>
    </text>
      
    <text style="fill:black;font-family:Arial;font-size:18px;" x="496.4501647949219" y="-13.290427207946777" id="TotalSum_inside_Left" transform="matrix(0.999922 0.0125281 -0.0125281 0.999922 -407.109 616.955)">
        <tspan x="496.4501647949219" id="TotalSum_inside_Left_tspan1">0 </tspan>
        <tspan dx="0" id="TotalSum_inside_Left_tspan2" fill="red">(0)</tspan>
    </text>
    <!-- Стрелка ИЗ перекрестка. Значения снизу  -->
    <text style="fill:black;font-family:Arial;font-size:18px;" x="506.4599609375" y="286.2164001464844" id="TotalSum_outside_Up" transform="matrix(-0.00908829 -0.999959 0.999959 -0.00908829 397.429 669.029)">
        <tspan x="506.4599609375" id="TotalSum_outside_Up_tspan1">0 </tspan>
        <tspan dx="0" id="TotalSum_outside_Up_tspan2" fill="red">(0)</tspan>
    </text>
    <text style="fill:black;font-family:Arial;font-size:18px;" x="1309.0408935546875" y="-28.126102447509766" id="TotalSum_outside_Right" transform="matrix(0.999922 0.0125281 -0.0125281 0.999922 -407.109 616.955)">
        <tspan x="1309.0408935546875" id="TotalSum_outside_Right_tspan1">0 </tspan>
        <tspan dx="0" id="TotalSum_outside_Right_tspan2" fill="red">(0)</tspan>
    </text>
    
    <text style="fill:black;font-family:Arial;font-size:18px;" x="499.6361083984375" y="-165.5202178955078" id="TotalSum_outside_Left" transform="matrix(0.999922 0.0125281 -0.0125281 0.999922 -407.109 616.955)">
        <tspan x="499.6361083984375" id="TotalSum_outside_Left_tspan1">0 </tspan>
        <tspan dx="0" id="TotalSum_outside_Left_tspan2" fill="red">(0)</tspan>
    </text>
    <!-- Названия направлений  -->
    <text style="fill:black;font-family:Arial;font-size:18px;" text-anchor="middle" x="42.5%" y="618.9735717773438" id="StreetName_Up" transform="matrix(0.999997 -0.0021031 0.0021031 0.999997 128.073 -571.761)">Направление 1</text>
    <text style="fill:black;font-family:Arial;font-size:18px;" text-anchor="middle" x="35.5%" y="1008.0" id="StreetName_Right" transform="matrix(-0.00269868 -0.999996 0.999996 -0.00269868 15.4245 835.533)">Направление 2</text>
    
    <text style="fill:black;font-family:Arial;font-size:18px;" text-anchor="middle" x="35.5%" y="57.78267288208008" id="StreetName_Left" transform="matrix(-0.00269868 -0.999996 0.999996 -0.00269868 15.4245 835.533)">Направление 4</text>
    <!-- Пересекаемые улицы  -->
    <text style="fill:black;font-family:Arial;font-size:18px;" x="547.9804077148438" y="352.5737609863281" id="StreetName_Vertical1" transform="matrix(-0.00269868 -0.999996 0.999996 -0.00269868 15.4245 835.533)">Улица вертикальная</text>
    <text style="fill:black;font-family:Arial;font-size:18px;" x="337.352" y="1224.92" id="StreetName_Horizontal1" transform="matrix(0.999997 -0.0021031 0.0021031 0.999997 128.073 -571.761)">Улица горизонтальная</text>
    <!-- Дополнительная информация  -->
    <text style="fill:black;font-family:Arial;font-size:14px;stroke:none;" x="53.897396087646484" y="886.6403198242188" id="SectionOrIntersection">
        <tspan x="53.897396087646484" id="SectionOrIntersection_tspan1" style="font-weight: bold;">Участок/перекресток: </tspan>
        <tspan dx="0" id="SectionOrIntersection_tspan2"> </tspan>
    </text>
    <text style="fill:black;font-family:Arial;font-size:14px;" x="52.88630676269531" y="906.0911254882812" id="Date">
        <tspan x="52.88630676269531" id="Date_tspan1" style="font-weight: bold;">Дата: </tspan>
        <tspan dx="0" id="Date_tspan2"> </tspan>
    </text>
    <text style="fill:black;font-family:Arial;font-size:14px;" x="52.36008071899414" y="927.3670043945312" id="DayOfWeek">
        <tspan x="52.36008071899414" id="DayOfWeek_tspan1" style="font-weight: bold;">День недели: </tspan>
        <tspan dx="0" id="DayOfWeek_tspan2"> </tspan>
    </text>
    <text style="fill:black;font-family:Arial;font-size:14px;" x="52.22282028198242" y="947.8796997070312" id="Time">
        <tspan x="52.22282028198242" id="Time_tspan1" style="font-weight: bold;">Время: </tspan>
        <tspan dx="0" id="Time_tspan2"> </tspan>
    </text>
    <line id="e1_line" x1="46.85" y1="620.379" x2="1040.36" y2="616.813" style="stroke:black;fill:none;stroke-width:2px;"/>
</svg>