<svg xmlns="http://www.w3.org/2000/svg" xmlns:xlink="http://www.w3.org/1999/xlink" version="1.1" preserveAspectRatio="xMidYMid meet" viewBox="53.01384353637695 22.586999893188477 973.2922973632812 937.4930419921875" width="549px" height="530px" >
    <rect id="svgEditorBackground" x="326.6813531551721" y="640.70849609375" width="486.43506895821054" height="468.74652099609375" style="fill:none; stroke: none;"/>
    <defs id="svgEditorDefs">
        <polygon id="svgEditorShapeDefs" style="fill:rosybrown;stroke:black;vector-effect:non-scaling-stroke;stroke-width:1px;"/>
        <linearGradient gradientTransform="matrix(1, 0, 0, 1, 0, 0) scale(0.342423)" gradientUnits="objectBoundingBox" id="lgrd3-b" spreadMethod="repeat" x1="0%" x2="20%" y1="0%" y2="0%">
            <stop offset="0" stop-color="#000000" stop-opacity="1"/>
            <stop offset="0.138909220695496" stop-color="#000000" stop-opacity="1"/>
            <stop style="stop-color: white;" offset="0.427272766828537"/>
        </linearGradient>
    </defs>
    <defs>
        <path d="" id="dxt0pp92r"/>
        <path d="M246.24 251.21L246.24 86.67" id="afM8RxwbQ"/>
        <path d="M379.65 251.21L379.65 86.67" id="cfjMfgChV"/>
        <path d="M422.27 284.61L589.65 284.61" id="b5OxVNm4Y"/>
        <path d="M422.27 382.55L589.65 382.55" id="g77ZzNZA1"/>
        <path d="M246.24 587.45L246.24 422.91" id="f23XxzPdA"/>
        <path d="M379.65 587.45L379.65 422.91" id="dkQXXSdND"/>
        <path d="" id="bz9rRvdM"/>
        <path d="M379.65 422.91C383 396.95 397.21 383.5 422.27 382.55" id="afaO7SXaT"/>
        <path d="M379.65 251.21C383 272.69 397.21 283.83 422.27 284.61" id="cvbV071s0"/>
        <path d="M203.62 284.61L36.24 284.61" id="a5f9AhvgKh"/>
        <path d="M246.24 251.21C242.88 272.69 228.68 283.83 203.62 284.61" id="a2ZFH71Etu"/>
        <path d="M203.62 384.75L36.24 384.75" id="b1oZZ1esgB"/>
        <path d="" id="b27HAQObv"/>
        <path d="M246.24 425.11C242.88 399.15 228.68 385.7 203.62 384.75" id="a81I8t4SQv"/>
    </defs>
    <g transform="matrix(1.6488 0 0 1.6488 -12.9192 -114.197)">
        <g>
            <g>
                <g>
                    <use xlink:href="#dxt0pp92r" opacity="1" fill-opacity="0" stroke="#000000" stroke-width="1" stroke-opacity="1"/>
                </g>
            </g>
            <g>
                <g>
                    <use xlink:href="#afM8RxwbQ" opacity="1" fill-opacity="0" stroke="#000000" stroke-width="1" stroke-opacity="1"/>
                </g>
            </g>
            <g transform="matrix(1 0 0 1 49.167 0)">
                <g>
                    <use xlink:href="#cfjMfgChV" opacity="1" fill-opacity="0" stroke="#000000" stroke-width="1" stroke-opacity="1"/>
                </g>
            </g>
            <g transform="matrix(1 0 0 1 49.167 0)">
                <g>
                    <use xlink:href="#b5OxVNm4Y" opacity="1" fill-opacity="0" stroke="#000000" stroke-width="1" stroke-opacity="1"/>
                </g>
            </g>
            <g transform="matrix(1 0 0 1 49.167 60.8119)">
                <g>
                    <use xlink:href="#g77ZzNZA1" opacity="1" fill-opacity="0" stroke="#000000" stroke-width="1" stroke-opacity="1"/>
                </g>
            </g>
            <g transform="matrix(1 0 0 1 0 60.8119)">
                <g>
                    <use xlink:href="#f23XxzPdA" opacity="1" fill-opacity="0" stroke="#000000" stroke-width="1" stroke-opacity="1"/>
                </g>
            </g>
            <g transform="matrix(1 0 0 1 49.167 60.8119)">
                <g>
                    <use xlink:href="#dkQXXSdND" opacity="1" fill-opacity="0" stroke="#000000" stroke-width="1" stroke-opacity="1"/>
                </g>
            </g>
            <g>
                <g>
                    <use xlink:href="#bz9rRvdM" opacity="1" fill-opacity="0" stroke="#000000" stroke-width="1" stroke-opacity="1"/>
                </g>
            </g>
            <g transform="matrix(1 0 0 1 49.167 60.8119)">
                <g>
                    <use xlink:href="#afaO7SXaT" opacity="1" fill-opacity="0" stroke="#000000" stroke-width="1" stroke-opacity="1"/>
                </g>
            </g>
            <g transform="matrix(1 0 0 1 49.167 0)">
                <g>
                    <use xlink:href="#cvbV071s0" opacity="1" fill-opacity="0" stroke="#000000" stroke-width="1" stroke-opacity="1"/>
                </g>
            </g>
            <g>
                <g>
                    <use xlink:href="#a5f9AhvgKh" opacity="1" fill-opacity="0" stroke="#000000" stroke-width="1" stroke-opacity="1"/>
                </g>
            </g>
            <g>
                <g>
                    <use xlink:href="#a2ZFH71Etu" opacity="1" fill-opacity="0" stroke="#000000" stroke-width="1" stroke-opacity="1"/>
                </g>
            </g>
            <g transform="matrix(1 0 0 1 0 60.8119)">
                <g>
                    <use xlink:href="#b1oZZ1esgB" opacity="1" fill-opacity="0" stroke="#000000" stroke-width="1" stroke-opacity="1"/>
                </g>
            </g>
            <g>
                <g>
                    <use xlink:href="#b27HAQObv" opacity="1" fill-opacity="0" stroke="#000000" stroke-width="1" stroke-opacity="1"/>
                </g>
            </g>
            <g transform="matrix(1 0 0 1 0 60.8119)">
                <g>
                    <use xlink:href="#a81I8t4SQv" opacity="1" fill-opacity="0" stroke="#000000" stroke-width="1" stroke-opacity="1"/>
                </g>
            </g>
        </g>
    </g>
    <path d="M3.2804971134340315,0.12408909115598024v-1.9999999999999991l3.158420390304358,3.999999999999999l-3.158420390304359,4.0000000000000036v-2.0000000000000036h-4.841579609695643v-4Z" style="fill:black; stroke:black; vector-effect:non-scaling-stroke;stroke-width:1px;" id="Total_outside_Right_Arrow" transform="matrix(10.7734 0 0 3.71202 924.512 560.544)"/>
    <path d="M-4.794733837820497,-45.612184651600195v-2l3.1584203903043595,4l-3.1584203903043595,4v-2h-4.841579609695644v-4Z" style="fill:black; stroke:black; vector-effect:non-scaling-stroke;stroke-width:1px;" id="Total_inside_Right_Arrow" transform="matrix(-10.7734 -0.0302691 0.0104293 -3.71201 885.97 257.813)"/>
    <path d="M-72.17349110759386,1.74282366369803v-1.9999999999999913l3.158420390304343,3.999999999999998l-3.158420390304343,3.9999999999999964v-1.9999999999999964h-4.841579609695657v-4.000000000000003Z" style="fill:black; stroke:black; vector-effect:non-scaling-stroke;stroke-width:1px;" id="Total_inside_Left_Arrow" transform="matrix(10.7734 0 0 3.71202 924.512 560.544)"/>
    <path d="M70.41569819493576,-45.93811918694094v-2l3.158420390304343,4l-3.158420390304343,4v-2h-4.841579609695543v-4Z" style="fill:black; stroke:black; vector-effect:non-scaling-stroke;stroke-width:1px;" id="Total_outside_Left_Arrow" transform="matrix(-10.7734 -0.0302691 0.0104293 -3.71201 885.97 257.813)"/>
    <path d="M-40.255415174560476,-86.45504335504486v-2l3.158420390304329,4l-3.158420390304329,4v-2h-4.841579609695671v-4Z" style="fill:black; stroke:black; vector-effect:non-scaling-stroke;stroke-width:1px;" id="Total_inside_Up_Arrow" transform="matrix(-0.012489 10.7734 -3.71202 -0.00430312 135.955 541.563)"/>
    <path d="M38.04130449842188,53.90749756368565v-2l3.1584203903043715,4l-3.1584203903043715,4v-1.9962106732048142h-4.841579609695643v-4.003789326795186Z" style="fill:black; stroke:black; vector-effect:non-scaling-stroke;stroke-width:1px;" id="Total_outside_Up_Arrow" transform="matrix(0.042758 -10.7734 3.712 0.0147324 434.675 503.372)"/>
    <path d="M32.59774571983232,-84.71593773376424v-2l3.1584203903043573,4l-3.1584203903043573,4v-2h-4.841579609695646v-4Z" style="fill:black; stroke:black; vector-effect:non-scaling-stroke;stroke-width:1px;" id="Total_outside_Down_Arrow" transform="matrix(-0.012489 10.7734 -3.71202 -0.00430312 131.899 541.563)"/>
    <path d="M-34.29731215403791,55.471650292824854v-2l3.1584203903043786,4l-3.1584203903043786,4.000000000000028v-2.0000000000000497h-4.841579609695657v-3.9999999999999787Z" style="fill:black; stroke:black; vector-effect:non-scaling-stroke;stroke-width:1px;" id="Total_inside_Down_Arrow" transform="matrix(0.042758 -10.7734 3.712 0.0147324 434.675 503.372)"/>
    <path d="M-0.6058409376430696,-0.9910491857829531a1.8,1.8,0,1,0,0,-3.600000000000004h-1.9999999999999991v1.0000000000000022l-1.2500000000000027,-1.6250000000000004l1.2499999999999982,-1.6250000000000018v1h2.0000000000000053a2.25,2.25,0,0,1,0,6.250000000000002Z" style="fill:black; stroke:black; vector-effect:non-scaling-stroke;stroke-width:1px;" id="Right_around_Arrow" transform="matrix(-5.91968 -0.0231282 0.0231282 -5.91968 711.879 549.504)"/>
    <path d="M-5.590454531568034,-0.5957649053388563l1.2499999999999858,-1.5624999999999991v1.2500000000000009a8,8,0,0,1,5.8610641385977456,5.513821449903337a149.210846,149.210846,0,0,0,-2.6874364113161295,-0.055641374450232206a4.17042,4.17042,0,0,0,-3.1736277272816196,-4.7081800754531v1.2500000000000009Z" style="fill:black; stroke:black; vector-effect:non-scaling-stroke;stroke-width:1px;" id="Right_left_Arrow" transform="matrix(-0.0000480079 -5.48499 5.48499 -0.0000480079 710.721 492.634)"/>
    <path d="M12.963750829533595,-52.57194397809267v-2l3.1584203903043644,4l-3.1584203903043644,4v-2h-4.018866789399022v-4Z" style="fill:black; stroke:black; vector-effect:non-scaling-stroke;stroke-width:1px;" id="Right_forward_Arrow" transform="matrix(-6.86449 -0.0192866 0.00664524 -2.36518 801.511 334.252)"/>
    <path d="M8.602479197723,-2.551909252761533l-1.2499999999999902,-1.5625000000000009v1.2500000000000009a8,8,0,0,0,-5.954305842919205,5.6216607213412875a37.569937,37.569937,0,0,1,2.7523917764229555,0.04125309261391408a4.304151,4.304151,0,0,1,3.2019140664962498,-4.9129138139552v1.2499999999999991Z" style="fill:black; stroke:black; vector-effect:non-scaling-stroke;stroke-width:1px;" id="Right_right_Arrow" transform="matrix(-0.110469 -5.55234 5.55234 -0.110469 722.79 427.256)"/>
    <path d="M33.26074120232677,-22.92459469733653a1.8,1.8,0,1,0,0,-3.6000000000000014h-2v1l-1.25,-1.625l1.25,-1.625v1h2a2.25,2.25,0,0,1,0,6.25Z" style="fill:black; stroke:black; vector-effect:non-scaling-stroke;stroke-width:1px;" id="Down_around_Arrow" transform="matrix(0.00918477 -5.91972 5.91972 0.00918477 608.432 841.395)"/>
    <path d="M-29.119127942012092,-37.23899852294389l1.25,-1.562500000000007v1.250000000000007a8,8,0,0,1,5.86106413859774,5.5138214499033325a149.210846,149.210846,0,0,0,-2.6874364113161278,-0.055641374450232206a4.17042,4.17042,0,0,0,-3.1736277272816125,-4.708180075453107v1.250000000000007Z" style="fill:black; stroke:black; vector-effect:non-scaling-stroke;stroke-width:1px;" id="Down_left_Arrow" transform="matrix(5.48497 -0.0129675 0.0129675 5.48497 665.299 840.103)"/>
    <path d="M42.18987751142476,-107.3753720744502v-2l3.1584203903043715,4l-3.1584203903043715,4v-2h-4.018926341204576v-4Z" style="fill:black; stroke:black; vector-effect:non-scaling-stroke;stroke-width:1px;" id="Down_forward_Arrow" transform="matrix(0.00311775 -6.86452 2.36519 0.00107421 823.895 930.519)"/>
    <path d="M-13.91199206470381,-39.198404171386144l-1.25,-1.5625000000000142v1.2500000000000142a8,8,0,0,0,-5.954305842919197,5.621660721341279a37.569937,37.569937,0,0,1,2.7523917764229537,0.04125309261392118a4.304151,4.304151,0,0,1,3.201914066496249,-4.912913813955214v1.2500000000000142Z" style="fill:black; stroke:black; vector-effect:non-scaling-stroke;stroke-width:1px;" id="e25" transform="matrix(5.55206 -0.123547 0.123547 5.55206 730.705 852.018)"/>
    <path d="M32.79214826517501,15.097214546617591a1.8,1.8,0,1,0,0,-3.599999999999998h-1.9999999999999964v1l-1.25,-1.6250000000000018l1.25,-1.6249999999999982v1h1.9999999999999964a2.25,2.25,0,0,1,0,6.249999999999998Z" style="fill:black; stroke:black; vector-effect:non-scaling-stroke;stroke-width:1px;" id="Up_around_Arrow" transform="matrix(-0.0203657 5.91969 -5.91969 -0.0203657 704.572 134.067)"/>
    <path d="M11.913959342653621,-36.572581387000355l1.2499999999999982,-1.5625v1.2500000000000142a8,8,0,0,1,5.86106413859774,5.513821449903336a149.210846,149.210846,0,0,0,-2.6874364113161278,-0.05564137445024642a4.17042,4.17042,0,0,0,-3.1736277272816125,-4.70818007545309v1.25Z" style="fill:black; stroke:black; vector-effect:non-scaling-stroke;stroke-width:1px;" id="Up_left_Arrow" transform="matrix(-5.48499 0.00260761 -0.00260761 -5.48499 647.703 135.251)"/>
    <path d="M41.74979579197967,-12.21365217748287v-2l3.1584203903043715,4l-3.1584203903043715,4v-2h-3.7446281452018653v-4Z" style="fill:black; stroke:black; vector-effect:non-scaling-stroke;stroke-width:1px;" id="Up_forward_Arrow" transform="matrix(-0.0160832 6.8645 -2.36518 -0.00554151 489.279 44.5352)"/>
    <path d="M26.59424392903771,-37.734514610945396l-1.249999999999993,-1.5625v1.25a8,8,0,0,0,-5.954305842919204,5.621660721341286a37.569937,37.569937,0,0,1,2.7523917764229537,0.04125309261391408a4.304151,4.304151,0,0,1,3.2019140664962507,-4.9129138139552v1.2500000000000142Z" style="fill:black; stroke:black; vector-effect:non-scaling-stroke;stroke-width:1px;" id="Up_right_Arrow" transform="matrix(-5.55229 0.11306 -0.11306 -5.55229 582.319 123.213)"/>
    <path d="M63.40639692187058,49.93567933675476a1.8,1.8,0,1,0,0,-3.5999999999999943h-1.9999999999999858v1l-1.25,-1.6250000000000142l1.25,-1.6249999999999858v1h1.9999999999999858a2.25,2.25,0,0,1,0,6.249999999999986Z" style="fill:black; stroke:black; vector-effect:non-scaling-stroke;stroke-width:1px;" id="Left_around_Arrow" transform="matrix(5.9196 0.0389758 -0.0389758 5.9196 -0.850919 115.831)"/>
    <path d="M49.642772653842925,-69.46580235366983l1.25,-1.5625v1.25a8,8,0,0,1,5.86106413859774,5.513821449903304a149.210846,149.210846,0,0,0,-2.6874364113161278,-0.055641374450232206a4.17042,4.17042,0,0,0,-3.1736277272816125,-4.708180075453072v1.2500000000000142Z" style="fill:black; stroke:black; vector-effect:non-scaling-stroke;stroke-width:1px;" id="Left_left_Arrow" transform="matrix(-0.014636 5.48497 -5.48497 -0.014636 0.154885 172.703)"/>
    <path d="M68.47646579685514,75.06038528328489v-2l3.1584203903043715,4l-3.1584203903043715,4v-2h-3.8817595031725745v-4.0152845606655205Z" style="fill:black; stroke:black; vector-effect:non-scaling-stroke;stroke-width:1px;" id="Left_forward_Arrow" transform="matrix(6.86442 0.0376636 -0.0129771 2.36515 -91.0589 330.841)"/>
    <path d="M64.49661731171643,-69.47495313264923l-1.2499999999998082,-1.5625000000000142v1.25a8,8,0,0,0,-5.95430584291919,5.621660721341286a37.569937,37.569937,0,0,1,2.7523917764229466,0.04125309261391408a4.304151,4.304151,0,0,1,3.2019140664962435,-4.912913813955186v1.2500000000000284Z" style="fill:black; stroke:black; vector-effect:non-scaling-stroke;stroke-width:1px;" id="Left_right_Arrow" transform="matrix(0.0956043 5.55262 -5.55262 0.0956043 -12.0891 238.049)"/>
    <text dy="-0.5em" style="fill:black;font-family:Arial;font-size:20px;" id="e4_text"/>
    <text dy="-0.5em" style="fill:black;font-family:Arial;font-size:20px;" id="e2_text" transform="matrix(1 0 0 1 -225.972 62.5768)"/>
    <text dy="-0.5em" style="fill:black;font-family:Arial;font-size:20px;" id="e6_text"/>
    <text dy="-0.5em" style="fill:black;font-family:Arial;font-size:20px;" id="e8_text"/>
    <!-- Стрелка В перекресток. Значения сверху  -->
    <text style="fill:black;font-family:Arial;font-size:20px;" text-anchor="middle" x="491.3055725097656" y="116.05445861816406" id="Total_inside_Up" transform="matrix(-0.012085 -0.999927 0.999927 -0.012085 314.185 608.746)">
        <tspan x="510" id="Total_inside_Up" style="font-size:16px;">0-0-0</tspan>
    </text>
    <text style="fill:black;font-family:Arial;font-size:20px;" text-anchor="middle" x="1289.3831787109375" y="-48.15892028808594" id="Total_inside_Right" transform="matrix(0.999945 0.010533 -0.010533 0.999945 -383.479 426.137)">
        <tspan x="1332" id="Total_inside_Right" style="font-size:16px;">0-0-0</tspan>
    </text>
    <text style="fill:black;font-family:Arial;font-size:20px;" text-anchor="middle" x="444.97137451171875" y="314.1366882324219" id="Total_inside_Down" transform="matrix(-0.012085 -0.999927 0.999927 -0.012085 316.503 1345.76)">
        <tspan x="458" id="Total_inside_Down" style="font-size:16px;">0-0-0</tspan>
    </text>
    <text style="fill:black;font-family:Arial;font-size:20px;" text-anchor="middle" x="475.5049133300781" y="116.74329376220703" id="Total_inside_Left" transform="matrix(0.999945 0.010533 -0.010533 0.999945 -383.479 426.137)">     
        <tspan x="520" style="font-size:16px;" id="e4_span">0-0-0</tspan>
    </text>
    <!-- Стрелка ИЗ перекрестка. Значения сверху  -->
    <text style="fill:black;font-family:Arial;font-size:20px;" text-anchor="middle" x="486.3769836425781" y="313.9452209472656" id="Total_outside_Up" transform="matrix(-0.012085 -0.999927 0.999927 -0.012085 314.185 608.746)">
        <tspan x="500" id="Total_outside_Up" style="font-size:16px;">0-0-0</tspan>
    </text>
    <text style="fill:black;font-family:Arial;font-size:20px;" text-anchor="middle" x="1244.122314453125" y="106.35125732421875" id="Total_outside_Right" transform="matrix(0.999945 0.010533 -0.010533 0.999945 -383.479 426.137)">
        <tspan x="1334" id="Total_outside_Right" style="font-size:16px;">0-0-0</tspan>
    </text>
    <text style="fill:black;font-family:Arial;font-size:20px;" text-anchor="middle" x="446.85015869140625" y="104.9858169555664" id="Total_outside_Down" transform="matrix(-0.012085 -0.999927 0.999927 -0.012085 316.503 1345.76)">
        <tspan x="463" id="Total_outside_Down" style="font-size:16px;">0-0-0</tspan>
    </text>
    <text style="fill:black;font-family:Arial;font-size:16px;" text-anchor="middle" x="476.73065185546875" y="-39.01933670043945" id="Total_outside_Left" transform="matrix(0.999945 0.010533 -0.010533 0.999945 -383.479 426.137)">
        <tspan x="521" id="e5_tspan">0-0-0</tspan>
    </text>
    <!-- Маленькие стрелки  -->
    <!-- Группа разворота  -->
    <text style="fill:black;font-family:Arial;font-size:16px;" x="307.73724365234375" y="320.490478515625" id="Up_around" transform="matrix(-0.012085 -0.999927 0.999927 -0.012085 314.185 608.746)">
        <tspan x="307.73724365234375" id="Up_around_tspan1">0-0-0 </tspan>
        <tspan dx="0" id="Up_around_tspan2" fill="red">(0)</tspan>
    </text>
    <text style="fill:black;font-family:Arial;font-size:16px;" x="1139.6431884765625" y="132.13063049316406" id="Right_around" transform="matrix(0.999945 0.010533 -0.010533 0.999945 -383.479 426.137)">
        <tspan x="1139.6431884765625" id="Right_around_tspan1">0-0-0 </tspan>
        <tspan dx="0" id="Right_around_tspan2" fill="red">(0)</tspan>
    </text>
    <text style="fill:black;font-family:Arial;font-size:16px;" text-anchor="end" x="-219.739501953125" y="148.21315002441406" id="Down_around" transform="matrix(-0.012085 -0.999927 0.999927 -0.012085 314.185 608.746)">
        <tspan x="-67" id="Down_around_tspan1">0-0-0 </tspan>
        <tspan dx="0" id="Down_around_tspan2" fill="red">(0)</tspan>
    </text>
    <text style="fill:black;font-family:Arial;font-size:16px;" text-anchor="end" x="648.5736694335938" y="-17.530168533325195" id="Left_around" transform="matrix(0.999945 0.010533 -0.010533 0.999945 -383.479 426.137)">
        <tspan x="725" id="Left_around_tspan1">0-0-0 </tspan>
        <tspan dx="0" id="Left_around_tspan2" fill="red">(0)</tspan>
    </text>
    <!-- Группа правого поворота  -->
    <text style="fill:black;font-family:Arial;font-size:16px;" x="309.7185974121094" y="150.80410766601562" id="Up_right" transform="matrix(-0.012085 -0.999927 0.999927 -0.012085 314.185 608.746)">
        <tspan x="309.7185974121094" id="Up_right_tspan1">0-0-0 </tspan>
        <tspan dx="0" id="Up_right_tspan2" fill="red">(0)</tspan>
    </text>
    <text style="fill:black;font-family:Arial;font-size:16px;" x="1137.5799560546875" y="-20.363388061523438" id="Right_right" transform="matrix(0.999945 0.010533 -0.010533 0.999945 -383.479 426.137)">
        <tspan x="1137.5799560546875" id="Right_right_tspan1">0-0-0 </tspan>
        <tspan dx="0" id="Right_right_tspan2" fill="red">(0)</tspan>
    </text>
    <text style="fill:black;font-family:Arial;font-size:16px;" text-anchor="end" x="-222.89361572265625" y="319.0452575683594" id="Down_right" transform="matrix(-0.012085 -0.999927 0.999927 -0.012085 314.185 608.746)">
        <tspan x="-70" id="Down_right_tspan1">0-0-0 </tspan>
        <tspan dx="0" id="Down_right_tspan2" fill="red">(0)</tspan>
    </text>
    <text style="fill:black;font-family:Arial;font-size:16px;" text-anchor="end" x="584.6350708007812" y="140.2947998046875" id="Left_right" transform="matrix(0.999945 0.010533 -0.010533 0.999945 -383.479 426.137)">
        <tspan x="725" id="Left_right_tspan1">0-0-0 </tspan>
        <tspan dx="0" id="Left_right_tspan2" fill="red">(0)</tspan>
    </text>
    <!-- Группа прямого проезда  -->
    <text style="fill:black;font-family:Arial;font-size:16px;" x="309.0888366699219" y="208.6717529296875" id="Up_forward" transform="matrix(-0.012085 -0.999927 0.999927 -0.012085 314.185 608.746)">
        <tspan x="309.0888366699219" id="Up_forward_tspan1">0-0-0 </tspan>
        <tspan dx="0" id="Up_forward_tspan2" fill="red">(0)</tspan>
    </text>
    <text style="fill:black;font-family:Arial;font-size:16px;" x="1139.1055908203125" y="26.09769630432129" id="Right_forward" transform="matrix(0.999945 0.010533 -0.010533 0.999945 -383.479 426.137)">
        <tspan x="1139.1055908203125" id="Right_forward_tspan2">0-0-0 </tspan>
        <tspan dx="0" id="Right_forward_tspan2" fill="red">(0)</tspan>
    </text>
    <text style="fill:black;font-family:Arial;font-size:16px;" text-anchor="end" x="-193.92315673828125" y="265.57586669921875" id="Down_forward" transform="matrix(-0.012085 -0.999927 0.999927 -0.012085 314.185 608.746)">
        <tspan x="-69" id="Down_forward_tspan1">0-0-0 </tspan>
        <tspan dx="0" id="Down_forward_tspan2" fill="red">(0)</tspan>
    </text>
    <text style="fill:black;font-family:Arial;font-size:16px;" text-anchor="end" x="583.6155395507812" y="86.8750991821289" id="Left_forward" transform="matrix(0.999945 0.010533 -0.010533 0.999945 -383.479 426.137)">
        <tspan x="725" id="Left_forward_tspan1">0-0-0 </tspan>
        <tspan dx="0" id="Left_forward_tspan2" fill="red">(0)</tspan>
    </text>
    <!-- Группа поворота налево  -->
    <text style="fill:black;font-family:Arial;font-size:16px;" x="308.3813781738281" y="261.46417236328125" id="Up_left" transform="matrix(-0.012085 -0.999927 0.999927 -0.012085 314.185 608.746)">
        <tspan x="308.3813781738281" id="Up_Left_tspan1">0-0-0 </tspan>
        <tspan dx="0" id="Up_Left_tspan2" fill="red">(0)</tspan>
    </text>
    <text style="fill:black;font-family:Arial;font-size:16px;" x="1138.5870361328125" y="75.23472595214844" id="Right_left" transform="matrix(0.999945 0.010533 -0.010533 0.999945 -383.479 426.137)">
        <tspan x="1138.5870361328125" id="Right_Left_tspan2">0-0-0 </tspan>
        <tspan dx="0" id="Right_Left_tspan2" fill="red">(0)</tspan>
    </text>
    <text style="fill:black;font-family:Arial;font-size:16px;" text-anchor="end" x="-220.97662353515625" y="208.39125061035156" id="Down_left" transform="matrix(-0.012085 -0.999927 0.999927 -0.012085 314.185 608.746)">
        <tspan x="-68" id="Down_Left_tspan1">0-0-0 </tspan>
        <tspan dx="0" id="Down_Left_tspan2" fill="red">(0)</tspan>
    </text>
    <text style="fill:black;font-family:Arial;font-size:16px;" text-anchor="end" x="582.94482421875" y="34.85332107543945" id="Left_left" transform="matrix(0.999945 0.010533 -0.010533 0.999945 -383.479 426.137)">
        <tspan x="725" id="Left_Left_tspan1">0-0-0 </tspan>
        <tspan dx="0" id="Left_Left_tspan2" fill="red">(0)</tspan>
    </text>
    
    <!-- Стрелка В перекресток. Значения снизу  -->
    <text style="fill:black;font-family:Arial;font-size:16px;" text-anchor="middle" x="528.31494140625" y="93.55970001220703" id="TotalSum_inside_Up" transform="matrix(-0.00908829 -0.999959 0.999959 -0.00908829 397.429 669.029)">
        <tspan x="570" id="TotalSum_inside_Up_tspan1">0 </tspan>
        <tspan dx="0" id="TotalSum_inside_Up_tspan2" fill="red">(0)</tspan>
    </text>
    <text style="fill:black;font-family:Arial;font-size:16px;" text-anchor="middle" x="1307.4407958984375" y="-173.64833068847656" id="TotalSum_inside_Right" transform="matrix(0.999922 0.0125281 -0.0125281 0.999922 -407.109 616.955)">
        <tspan x="1355" id="TotalSum_inside_Right_tspan1">0 </tspan>
        <tspan dx="0" id="TotalSum_inside_Right_tspan2" fill="red">(0)</tspan>
    </text>
    <text style="fill:black;font-family:Arial;font-size:16px;" text-anchor="middle" x="-253.1412353515625" y="281.9660949707031" id="TotalSum_inside_Down" transform="matrix(-0.00908829 -0.999959 0.999959 -0.00908829 397.429 669.029)">
        <tspan x="-219" id="TotalSum_inside_Down_tspan1">0 </tspan>
        <tspan dx="0" id="TotalSum_inside_Down_tspan2" fill="red">(0)</tspan>
    </text>  
    <text style="fill:black;font-family:Arial;font-size:16px;" text-anchor="middle" x="496.4501647949219" y="-13.290427207946777" id="TotalSum_inside_Left" transform="matrix(0.999922 0.0125281 -0.0125281 0.999922 -407.109 616.955)">
        <tspan x="541" id="TotalSum_inside_Left_tspan1">0 </tspan>
        <tspan dx="0" id="TotalSum_inside_Left_tspan2" fill="red">(0)</tspan>
    </text>
    <!-- Стрелка ИЗ перекрестка. Значения снизу  -->
    <text style="fill:black;font-family:Arial;font-size:16px;" text-anchor="middle" x="520.5783081054688" y="286.3447570800781" id="TotalSum_outside_Up" transform="matrix(-0.00908829 -0.999959 0.999959 -0.00908829 397.429 669.029)">
        <tspan x="560" id="TotalSum_outside_Up_tspan1">0 </tspan>
        <tspan dx="0" id="TotalSum_outside_Up_tspan2" fill="red">(0)</tspan>
    </text>
    <text style="fill:black;font-family:Arial;font-size:16px;" text-anchor="middle" x="1309.0408935546875" y="-28.126102447509766" id="TotalSum_outside_Right" transform="matrix(0.999922 0.0125281 -0.0125281 0.999922 -407.109 616.955)">
        <tspan x="1355" id="TotalSum_outside_Right_tspan1">0 </tspan>
        <tspan dx="0" id="TotalSum_outside_Right_tspan2" fill="red">(0)</tspan>
    </text>
    <text style="fill:black;font-family:Arial;font-size:16px;" text-anchor="middle" x="-253.4869384765625" y="75.8406753540039" id="TotalSum_outside_Down" transform="matrix(-0.00908829 -0.999959 0.999959 -0.00908829 397.429 669.029)">
        <tspan x="-219" id="TotalSum_outside_Down_tspan1">0 </tspan>
        <tspan dx="0" id="TotalSum_outside_Down_tspan2" fill="red">(0)</tspan>
    </text>
    <text style="fill:black;font-family:Arial;font-size:16px;" text-anchor="middle" x="499.6360778808594" y="-165.52023315429688" id="TotalSum_outside_Left" transform="matrix(0.999922 0.0125281 -0.0125281 0.999922 -407.109 616.955)">
        <tspan x="541" id="TotalSum_outside_Left_tspan1">0 </tspan>
        <tspan dx="0" id="TotalSum_outside_Left_tspan2" fill="red">(0)</tspan>
    </text>
    <!-- Названия направлений  -->
    <text style="fill:black;font-family:Arial;font-size:16px;" text-anchor="middle" x="42.5%" y="618.9735717773438" id="StreetName_Up" transform="matrix(0.999997 -0.0021031 0.0021031 0.999997 128.073 -571.761)">Направление 1</text>
    <text style="fill:black;font-family:Arial;font-size:16px;" text-anchor="middle" x="35.5%" y="1008.0" id="StreetName_Right" transform="matrix(-0.00269868 -0.999996 0.999996 -0.00269868 15.4245 835.533)">Направление 2</text>
    <text style="fill:black;font-family:Arial;font-size:16px;" text-anchor="middle" x="42.5%" y="1521.2457275390625" id="StreetName_Down" transform="matrix(0.999997 -0.0021031 0.0021031 0.999997 128.073 -571.761)">Направление 3</text>
    <text style="fill:black;font-family:Arial;font-size:16px;" text-anchor="middle" x="35.5%" y="57.78267288208008" id="StreetName_Left" transform="matrix(-0.00269868 -0.999996 0.999996 -0.00269868 15.4245 835.533)">Направление 4</text>
    <!-- Пересекаемые улицы  -->
    <text style="fill:black;font-family:Arial;font-size:16px;" x="547.9804077148438" y="352.5737609863281" id="StreetName_Vertical1" transform="matrix(-0.00269868 -0.999996 0.999996 -0.00269868 15.4245 835.533)">Улица вертикальная</text>
    <text style="fill:black;font-family:Arial;font-size:16px;" x="-100.34910583496094" y="713.3931274414062" id="StreetName_Vertical2" transform="matrix(-0.00269868 -0.999996 0.999996 -0.00269868 15.4245 835.533)">Улица вертикальная</text>
    <text style="fill:black;font-family:Arial;font-size:16px;" x="-41.89319610595703" y="1223.0010986328125" id="StreetName_Horizontal1" transform="matrix(0.999997 -0.0021031 0.0021031 0.999997 128.073 -571.761)">Улица горизонтальная</text>
    <text style="fill:black;font-family:Arial;font-size:16px;" x="642.6860961914062" y="1226.1728515625" id="StreetName_Horizontal2" transform="matrix(0.999997 -0.0021031 0.0021031 0.999997 128.073 -571.761)">Улица горизонтальная</text>
    <!-- Дополнительная информация  -->
    <text style="fill:black;font-family:Arial;font-size:14px;stroke:none;" x="53.897396087646484" y="886.6403198242188" id="SectionOrIntersection">
        <tspan x="53.897396087646484" id="SectionOrIntersection_tspan1" style="font-weight: bold;">Участок/перекресток: </tspan>
        <tspan dx="0" id="SectionOrIntersection_tspan2"> </tspan>
    </text>
    <text style="fill:black;font-family:Arial;font-size:14px;" x="52.88630676269531" y="906.0911254882812" id="Date">
        <tspan x="52.88630676269531" id="Date_tspan1" style="font-weight: bold;">Дата: </tspan>
        <tspan dx="0" id="Date_tspan2"> </tspan>
    </text>
    <text style="fill:black;font-family:Arial;font-size:14px;" x="52.36008071899414" y="927.3670043945312" id="DayOfWeek">
        <tspan x="52.36008071899414" id="DayOfWeek_tspan1" style="font-weight: bold;">День недели: </tspan>
        <tspan dx="0" id="DayOfWeek_tspan2"> </tspan>
    </text>
    <text style="fill:black;font-family:Arial;font-size:14px;" x="52.22282028198242" y="947.8796997070312" id="Time">
        <tspan x="52.22282028198242" id="Time_tspan1" style="font-weight: bold;">Время: </tspan>
        <tspan dx="0" id="Time_tspan2"> </tspan>
    </text>
    <circle id="e1_circle" cx="540.779" cy="480.146" style="fill:url(#lgrd3-b);stroke:black;stroke-width:2px;" r="89.7913"/>
</svg>