<svg xmlns="http://www.w3.org/2000/svg" xmlns:xlink="http://www.w3.org/1999/xlink" version="1.1" preserveAspectRatio="xMidYMid meet" viewBox="52.8750114440918 21.52940559387207 973.5699462890625 939.6082153320312" width="549px" height="530px" >
    <rect id="svgEditorBackground" x="326.6813531551721" y="640.70849609375" width="486.43506895821054" height="468.74652099609375" style="fill:none; stroke: none;"/>
    <defs id="svgEditorDefs">
        <polygon id="svgEditorShapeDefs" style="fill:rosybrown;stroke:black;vector-effect:non-scaling-stroke;stroke-width:1px;"/>
    </defs>
    <defs>
        <path d="" id="dxt0pp92r"/>
        <path d="M246.24 251.21L246.24 86.67" id="afM8RxwbQ"/>
        <path d="M379.65 251.21L379.65 86.67" id="cfjMfgChV"/>
        <path d="M422.27 284.61L589.65 284.61" id="b5OxVNm4Y"/>
        <path d="M422.27 382.55L589.65 382.55" id="g77ZzNZA1"/>
        <path d="M246.24 587.45L246.24 422.91" id="f23XxzPdA"/>
        <path d="M379.65 587.45L379.65 422.91" id="dkQXXSdND"/>
        <path d="" id="bz9rRvdM"/>
        <path d="M379.65 422.91C383 396.95 397.21 383.5 422.27 382.55" id="afaO7SXaT"/>
        <path d="M379.65 251.21C383 272.69 397.21 283.83 422.27 284.61" id="cvbV071s0"/>
        <path d="M203.62 284.61L36.24 284.61" id="a5f9AhvgKh"/>
        <path d="M246.24 251.21C242.88 272.69 228.68 283.83 203.62 284.61" id="a2ZFH71Etu"/>
        <path d="M203.62 384.75L36.24 384.75" id="b1oZZ1esgB"/>
        <path d="" id="b27HAQObv"/>
        <path d="M246.24 425.11C242.88 399.15 228.68 385.7 203.62 384.75" id="a81I8t4SQv"/>
    </defs>
    <g transform="matrix(1.6488 0 0 1.6488 -12.9192 -114.197)">
        <g>
            <g>
                <g>
                    <use xlink:href="#dxt0pp92r" opacity="1" fill-opacity="0" stroke="#000000" stroke-width="1" stroke-opacity="1"/>
                </g>
            </g>
            
            <g transform="matrix(1 0 0 1 49.167 0)">
                <g>
                    <use xlink:href="#cfjMfgChV" opacity="1" fill-opacity="0" stroke="#000000" stroke-width="1" stroke-opacity="1"/>
                </g>
            </g>
            <g transform="matrix(1 0 0 1 49.167 0)">
                <g>
                    <use xlink:href="#b5OxVNm4Y" opacity="1" fill-opacity="0" stroke="#000000" stroke-width="1" stroke-opacity="1"/>
                </g>
            </g>
            <g transform="matrix(1 0 0 1 49.167 60.8119)">
                <g>
                    <use xlink:href="#g77ZzNZA1" opacity="1" fill-opacity="0" stroke="#000000" stroke-width="1" stroke-opacity="1"/>
                </g>
            </g>
            
            <g transform="matrix(1 0 0 1 49.167 60.8119)">
                <g>
                    <use xlink:href="#dkQXXSdND" opacity="1" fill-opacity="0" stroke="#000000" stroke-width="1" stroke-opacity="1"/>
                </g>
            </g>
            <g>
                <g>
                    <use xlink:href="#bz9rRvdM" opacity="1" fill-opacity="0" stroke="#000000" stroke-width="1" stroke-opacity="1"/>
                </g>
            </g>
            <g transform="matrix(1 0 0 1 49.167 60.8119)">
                <g>
                    <use xlink:href="#afaO7SXaT" opacity="1" fill-opacity="0" stroke="#000000" stroke-width="1" stroke-opacity="1"/>
                </g>
            </g>
            <g transform="matrix(1 0 0 1 49.167 0)">
                <g>
                    <use xlink:href="#cvbV071s0" opacity="1" fill-opacity="0" stroke="#000000" stroke-width="1" stroke-opacity="1"/>
                </g>
            </g>
            
            
            
            <g>
                <g>
                    <use xlink:href="#b27HAQObv" opacity="1" fill-opacity="0" stroke="#000000" stroke-width="1" stroke-opacity="1"/>
                </g>
            </g>
            
        </g>
    </g>
    <path d="M4.506419257233384,0.12408909115598081v-2l3.158420390304359,3.9999999999999996l-3.158420390304361,4.0000000000000036v-2.0000000000000036h-4.841579609695643v-4Z" style="fill:black; stroke:black; vector-effect:non-scaling-stroke;stroke-width:1px;" id="Total_outside_Right_Arrow" transform="matrix(10.7734 0 0 3.71202 924.512 560.544)"/>
    <path d="M-6.020646304362752,-45.602188108077875v-2l3.158420390304359,4l-3.158420390304359,4v-2h-4.841579609695644v-4Z" style="fill:black; stroke:black; vector-effect:non-scaling-stroke;stroke-width:1px;" id="Total_inside_Right_Arrow" transform="matrix(-10.7734 -0.0302691 0.0104293 -3.71201 885.97 257.813)"/>
    
    
    <path d="M-41.22238488108018,-86.4517900088482v-2l3.158420390304329,4l-3.158420390304329,4v-2h-4.841579609695671v-4Z" style="fill:black; stroke:black; vector-effect:non-scaling-stroke;stroke-width:1px;" id="Total_inside_Up_Arrow" transform="matrix(-0.012489 10.7734 -3.71202 -0.00430312 135.955 541.563)"/>
    <path d="M39.35772846215425,53.89233386184074v-2l3.1584203903043644,4l-3.1584203903043644,4v-1.9962106732048142h-4.841579609695643v-4.003789326795186Z" style="fill:black; stroke:black; vector-effect:non-scaling-stroke;stroke-width:1px;" id="Total_outside_Up_Arrow" transform="matrix(0.042758 -10.7734 3.712 0.0147324 434.675 503.372)"/>
    <path d="M33.12589859557744,-84.7177146913441v-2l3.1584203903043644,4l-3.1584203903043573,4v-2h-4.841579609695643v-4Z" style="fill:black; stroke:black; vector-effect:non-scaling-stroke;stroke-width:1px;" id="Total_outside_Down_Arrow" transform="matrix(-0.012489, 10.7734, -3.71202, -0.00430312, 131.899, 541.563)"/>
    <path d="M-34.82545834849677,55.477733934298946v-2l3.1584203903043786,4l-3.1584203903043786,4.000000000000028v-2.0000000000000497h-4.841579609695657v-3.9999999999999787Z" style="fill:black; stroke:black; vector-effect:non-scaling-stroke;stroke-width:1px;" id="Total_inside_Down_Arrow" transform="matrix(0.042758 -10.7734 3.712 0.0147324 434.675 503.372)"/>
    <path d="M-0.5695314106143069,0.8057090871236218a1.8,1.8,0,1,0,0,-3.600000000000005h-1.9999999999999987v1.0000000000000013l-1.2500000000000009,-1.6250000000000009l1.2500000000000013,-1.6250000000000009v1h2a2.25,2.25,0,0,1,0,6.25Z" style="fill:black; stroke:black; vector-effect:non-scaling-stroke;stroke-width:1px;" id="Right_around_Arrow" transform="matrix(-5.91968 -0.0231282 0.0231282 -5.91968 711.879 549.504)"/>
    <path d="M-1.7118423461743615,-0.627341770964748l1.2499999999999982,-1.562499999999997v1.2499999999999996a8,8,0,0,1,5.861064138597746,5.5138214499033325a149.210846,149.210846,0,0,0,-2.6874364113161304,-0.05564137445023043a4.17042,4.17042,0,0,0,-3.1736277272816165,-4.7081800754530985v1.2500000000000018Z" style="fill:black; stroke:black; vector-effect:non-scaling-stroke;stroke-width:1px;" id="Right_left_Arrow" transform="matrix(-0.0000480079 -5.48499 5.48499 -0.0000480079 710.721 492.634)"/>
    
    <path d="M6.694426161385072,-2.9403960342254005l-1.2499999999999973,-1.5625000000000004v1.2500000000000009a8,8,0,0,0,-5.954305842919201,5.621660721341285a37.569937,37.569937,0,0,1,2.7523917764229564,0.0412530926139123a4.304151,4.304151,0,0,1,3.2019140664962453,-4.912913813955197v1.2499999999999996Z" style="fill:black; stroke:black; vector-effect:non-scaling-stroke;stroke-width:1px;" id="Right_right_Arrow" transform="matrix(-0.110469 -5.55234 5.55234 -0.110469 722.79 427.256)"/>
    <path d="M35.18489600702792,-19.015077962720923a1.8,1.8,0,1,0,0,-3.6000000000000014h-2v1l-1.25,-1.625l1.25,-1.625v1h2a2.25,2.25,0,0,1,0,6.25Z" style="fill:black; stroke:black; vector-effect:non-scaling-stroke;stroke-width:1px;" id="Down_around_Arrow" transform="matrix(0.00918477 -5.91972 5.91972 0.00918477 608.432 841.395)"/>
    
    <path d="M43.326279944227146,-114.82427757539502v-2l3.1584203903043715,4l-3.1584203903043715,4v-2h-3.7421511779092924v-4Z" style="fill:black; stroke:black; vector-effect:non-scaling-stroke;stroke-width:1px;" id="Down_forward_Arrow" transform="matrix(0.00311775 -6.86452 2.36519 0.00107421 823.895 930.519)"/>
    <path d="M-13.526841726856702,-41.23493936159376l-1.25,-1.5625000000000213v1.2500000000000213a8,8,0,0,0,-5.954305842919197,5.621660721341279a37.569937,37.569937,0,0,1,2.7523917764229537,0.04125309261392118a4.304151,4.304151,0,0,1,3.201914066496249,-4.912913813955221v1.2500000000000213Z" style="fill:black; stroke:black; vector-effect:non-scaling-stroke;stroke-width:1px;" id="e25" transform="matrix(5.55206 -0.123547 0.123547 5.55206 730.705 852.018)"/>
    <path d="M33.44472435388222,16.573138900095174a1.8,1.8,0,1,0,0,-3.599999999999996h-2.0000000000000036v1l-1.25,-1.6250000000000053l1.25,-1.6249999999999947v1h2.0000000000000036a2.25,2.25,0,0,1,0,6.249999999999991Z" style="fill:black; stroke:black; vector-effect:non-scaling-stroke;stroke-width:1px;" id="Up_around_Arrow" transform="matrix(-0.0203657 5.91969 -5.91969 -0.0203657 704.572 134.067)"/>
    <path d="M15.125697352909505,-37.26986888528651l1.25,-1.5625000000000142v1.25a8,8,0,0,1,5.86106413859774,5.5138214499033325a149.210846,149.210846,0,0,0,-2.6874364113161278,-0.055641374450232206a4.17042,4.17042,0,0,0,-3.1736277272816125,-4.708180075453086v1.25Z" style="fill:black; stroke:black; vector-effect:non-scaling-stroke;stroke-width:1px;" id="Up_left_Arrow" transform="matrix(-5.48499 0.00260761 -0.00260761 -5.48499 647.703 135.251)"/>
    <path d="M42.32083944925331,3.475070264647158v-1.9999999999999991l3.1584203903043573,3.9999999999999973l-3.1584203903043573,4.000000000000002v-1.9999999999999991h-3.605046908405825v-4.041117999552484Z" style="fill:black; stroke:black; vector-effect:non-scaling-stroke;stroke-width:1px;" id="Up_forward_Arrow" transform="matrix(-0.0160832 6.8645 -2.36518 -0.00554151 489.279 44.5352)"/>
    
    
    
    
    
    <text dy="-0.5em" style="fill:black;font-family:Arial;font-size:20px;" id="e4_text"/>
    <text dy="-0.5em" style="fill:black;font-family:Arial;font-size:20px;" id="e2_text" transform="matrix(1 0 0 1 -225.972 62.5768)"/>
    <text dy="-0.5em" style="fill:black;font-family:Arial;font-size:20px;" id="e6_text"/>
    <text dy="-0.5em" style="fill:black;font-family:Arial;font-size:20px;" id="e8_text"/>
    <!-- Стрелка В перекресток. Значения сверху  -->
    <text style="fill:black;font-family:Arial;font-size:20px;" text-anchor="middle" x="501.7223205566406" y="116.18038940429688" id="Total_inside_Up" transform="matrix(-0.012085, -0.999927, 0.999927, -0.012085, 314.185, 608.746)">
        <tspan x="522" id="Total_inside_Up" style="font-size:16px;">0-0-0</tspan>
    </text>
    <text style="fill:black;font-family:Arial;font-size:20px;" text-anchor="middle" x="1302.5902099609375" y="-48.298038482666016" id="Total_inside_Right" transform="matrix(0.999945 0.010533 -0.010533 0.999945 -383.479 426.137)">
        <tspan x="1345" id="Total_inside_Right" style="font-size:16px;">0-0-0</tspan>
    </text>
    <text style="fill:black;font-family:Arial;font-size:20px;" text-anchor="middle" x="439.28179931640625" y="314.0679016113281" id="Total_inside_Down" transform="matrix(-0.012085 -0.999927 0.999927 -0.012085 316.503 1345.76)">
        <tspan x="451" id="Total_inside_Down" style="font-size:16px;">0-0-0</tspan>
    </text>
    
    <!-- Стрелка ИЗ перекрестка. Значения сверху  -->
    <text style="fill:black;font-family:Arial;font-size:20px;" text-anchor="middle" x="500.5585021972656" y="314.1166076660156" id="Total_outside_Up" transform="matrix(-0.012085 -0.999927 0.999927 -0.012085 314.185 608.746)">
        <tspan x="512" id="Total_outside_Up" style="font-size:16px;">0-0-0</tspan>
    </text>
    <text style="fill:black;font-family:Arial;font-size:20px;" text-anchor="middle" x="1257.329345703125" y="106.2121353149414" id="Total_outside_Right" transform="matrix(0.999945 0.010533 -0.010533 0.999945 -383.479 426.137)">
        <tspan x="1345" id="Total_outside_Right" style="font-size:16px;">0-0-0</tspan>
    </text>
    <text style="fill:black;font-family:Arial;font-size:20px;" text-anchor="middle" x="450.611572265625" y="105.03124237060547" id="Total_outside_Down" transform="matrix(-0.012085 -0.999927 0.999927 -0.012085 316.503 1345.76)">
        <tspan x="458" id="Total_outside_Down" style="font-size:16px;">0-0-0</tspan>
    </text>
    
    <!-- Маленькие стрелки  -->
    <!-- Группа разворота  -->
    <text style="fill:black;font-family:Arial;font-size:16px;" x="301.15704345703125" y="311.6601867675781" id="Up_around" transform="matrix(-0.012085 -0.999927 0.999927 -0.012085 314.185 608.746)">
        <tspan x="301.15704345703125" id="Up_around_tspan1">0-0-0 </tspan>
        <tspan dx="0" id="Up_around_tspan2" fill="red">(0)</tspan>
    </text>
    <text style="fill:black;font-family:Arial;font-size:16px;" x="1128.02001953125" y="121.61559295654297" id="Right_around" transform="matrix(0.999945 0.010533 -0.010533 0.999945 -383.479 426.137)">
        <tspan x="1128.02001953125" id="Right_around_tspan1">0-0-0 </tspan>
        <tspan dx="0" id="Right_around_tspan2" fill="red">(0)</tspan>
    </text>
    <text style="fill:black;font-family:Arial;font-size:16px;" text-anchor="end" x="-125.736083984375" y="171.57046508789062" id="Down_around" transform="matrix(-0.012085 -0.999927 0.999927 -0.012085 314.185 608.746)">
        <tspan x="-60" id="Down_around_tspan1">0-0-0 </tspan>
        <tspan dx="0" id="Down_around_tspan2" fill="red">(0)</tspan>
    </text>
    
    <!-- Группа правого поворота  -->
    
    <text style="fill:black;font-family:Arial;font-size:16px;" x="1124.408203125" y="-9.586994171142578" id="Right_right" transform="matrix(0.999945 0.010533 -0.010533 0.999945 -383.479 426.137)">
        <tspan x="1124.408203125" id="Right_right_tspan1">0-0-0 </tspan>
        <tspan dx="0" id="Right_right_tspan2" fill="red">(0)</tspan>
    </text>
    <text style="fill:black;font-family:Arial;font-size:16px;" text-anchor="end" x="-128.63311767578125" y="321.12982177734375" id="Down_right" transform="matrix(-0.012085 -0.999927 0.999927 -0.012085 314.185 608.746)">
        <tspan x="-60" id="Down_right_tspan1">0-0-0 </tspan>
        <tspan dx="0" id="Down_right_tspan2" fill="red">(0)</tspan>
    </text>
    
    <!-- Группа прямого проезда  -->
    <text style="fill:black;font-family:Arial;font-size:16px;" x="302.8514099121094" y="171.47772216796875" id="Up_forward" transform="matrix(-0.012085 -0.999927 0.999927 -0.012085 314.185 608.746)">
        <tspan x="302.8514099121094" id="Up_forward_tspan1">0-0-0 </tspan>
        <tspan dx="0" id="Up_forward_tspan2" fill="red">(0)</tspan>
    </text>
    
    <text style="fill:black;font-family:Arial;font-size:16px;" text-anchor="end" x="-102.97245025634766" y="248.1177978515625" id="Down_forward" transform="matrix(-0.012085 -0.999927 0.999927 -0.012085 314.185 608.746)">
        <tspan x="-60" id="Down_forward_tspan1">0-0-0 </tspan>
        <tspan dx="0" id="Down_forward_tspan2" fill="red">(0)</tspan>
    </text>
    
    <!-- Группа поворота налево  -->
    <text style="fill:black;font-family:Arial;font-size:16px;" x="301.9082946777344" y="243.7702178955078" id="Up_left" transform="matrix(-0.012085 -0.999927 0.999927 -0.012085 314.185 608.746)">
        <tspan x="301.9082946777344" id="Up_Left_tspan1">0-0-0 </tspan>
        <tspan dx="0" id="Up_Left_tspan2" fill="red">(0)</tspan>
    </text>
    <text style="fill:black;font-family:Arial;font-size:16px;" x="1126.851806640625" y="54.08308029174805" id="Right_left" transform="matrix(0.999945 0.010533 -0.010533 0.999945 -383.479 426.137)">
        <tspan x="1126.851806640625" id="Right_Left_tspan2">0-0-0 </tspan>
        <tspan dx="0" id="Right_Left_tspan2" fill="red">(0)</tspan>
    </text>
    
    
    
    <!-- Стрелка В перекресток. Значения снизу  -->
    <text style="fill:black;font-family:Arial;font-size:16px;" text-anchor="middle" x="538.7316284179688" y="93.65445709228516" id="TotalSum_inside_Up" transform="matrix(-0.00908829 -0.999959 0.999959 -0.00908829 397.429 669.029)">
        <tspan x="583" id="TotalSum_inside_Up_tspan1">0 </tspan>
        <tspan dx="0" id="TotalSum_inside_Up_tspan2" fill="red">(0)</tspan>
    </text>
    <text style="fill:black;font-family:Arial;font-size:16px;" text-anchor="middle" x="1320.64697265625" y="-173.81378173828125" id="TotalSum_inside_Right" transform="matrix(0.999922 0.0125281 -0.0125281 0.999922 -407.109 616.955)">
        <tspan x="1369" id="TotalSum_inside_Right_tspan1">0 </tspan>
        <tspan dx="0" id="TotalSum_inside_Right_tspan2" fill="red">(0)</tspan>
    </text>
    <text style="fill:black;font-family:Arial;font-size:16px;" text-anchor="middle" x="-258.8310852050781" y="281.9144287109375" id="TotalSum_inside_Down" transform="matrix(-0.00908829 -0.999959 0.999959 -0.00908829 397.429 669.029)">
        <tspan x="-224" id="TotalSum_inside_Down_tspan1">0 </tspan>
        <tspan dx="0" id="TotalSum_inside_Down_tspan2" fill="red">(0)</tspan>
    </text>  
    
    <!-- Стрелка ИЗ перекрестка. Значения снизу  -->
    <text style="fill:black;font-family:Arial;font-size:16px;" text-anchor="middle" x="534.7598876953125" y="286.4736633300781" id="TotalSum_outside_Up" transform="matrix(-0.00908829 -0.999959 0.999959 -0.00908829 397.429 669.029)">
        <tspan x="575" id="TotalSum_outside_Up_tspan1">0 </tspan>
        <tspan dx="0" id="TotalSum_outside_Up_tspan2" fill="red">(0)</tspan>
    </text>
    <text style="fill:black;font-family:Arial;font-size:16px;" text-anchor="middle" x="1322.2470703125" y="-28.291566848754883" id="TotalSum_outside_Right" transform="matrix(0.999922 0.0125281 -0.0125281 0.999922 -407.109 616.955)">
        <tspan x="1369" id="TotalSum_outside_Right_tspan1">0 </tspan>
        <tspan dx="0" id="TotalSum_outside_Right_tspan2" fill="red">(0)</tspan>
    </text>
    <text style="fill:black;font-family:Arial;font-size:16px;" text-anchor="middle" x="-259.1767578125" y="75.78890991210938" id="TotalSum_outside_Down" transform="matrix(-0.00908829 -0.999959 0.999959 -0.00908829 397.429 669.029)">
        <tspan x="-219" id="TotalSum_outside_Down_tspan1">0 </tspan>
        <tspan dx="0" id="TotalSum_outside_Down_tspan2" fill="red">(0)</tspan>
    </text>
    
    <!-- Названия направлений  -->
    <text style="fill:black;font-family:Arial;font-size:16px;" text-anchor="middle" x="42.5%" y="611.4264526367188" id="StreetName_Up" transform="matrix(0.999997 -0.0021031 0.0021031 0.999997 128.073 -571.761)">Направление 1</text>
    <text style="fill:black;font-family:Arial;font-size:16px;" text-anchor="middle" x="35.5%" y="1008.0" id="StreetName_Right" transform="matrix(-0.00269868 -0.999996 0.999996 -0.00269868 15.4245 835.533)">Направление 2</text>
    <text style="fill:black;font-family:Arial;font-size:16px;" text-anchor="middle" x="41.5%" y="1526.91845703125" id="StreetName_Down" transform="matrix(0.999997 -0.0021031 0.0021031 0.999997 128.073 -571.761)">Направление 3</text>
    
    <!-- Пересекаемые улицы  -->
    <text style="fill:black;font-family:Arial;font-size:16px;" text-anchor="middle" x="350" y="345.082" id="StreetName_Vertical1" transform="matrix(-0.00269868, -0.999996, 0.999996, -0.00269868, 15.4245, 835.533)">Улица вертикальная</text>
    <text style="fill:black;font-family:Arial;font-size:16px;" x="642.6860961914062" y="1226.1728515625" id="StreetName_Horizontal1" transform="matrix(0.999997 -0.0021031 0.0021031 0.999997 128.073 -571.761)">Улица горизонтальная</text>
    <!-- Дополнительная информация  -->
    <text style="fill:black;font-family:Arial;font-size:14px;stroke:none;" x="53.897396087646484" y="886.6403198242188" id="SectionOrIntersection">
        <tspan x="53.897396087646484" id="SectionOrIntersection_tspan1" style="font-weight: bold;">Участок/перекресток: </tspan>
        <tspan dx="0" id="SectionOrIntersection_tspan2"> </tspan>
    </text>
    <text style="fill:black;font-family:Arial;font-size:14px;" x="52.88630676269531" y="906.0911254882812" id="Date">
        <tspan x="52.88630676269531" id="Date_tspan1" style="font-weight: bold;">Дата: </tspan>
        <tspan dx="0" id="Date_tspan2"> </tspan>
    </text>
    <text style="fill:black;font-family:Arial;font-size:14px;" x="52.36008071899414" y="927.3670043945312" id="DayOfWeek">
        <tspan x="52.36008071899414" id="DayOfWeek_tspan1" style="font-weight: bold;">День недели: </tspan>
        <tspan dx="0" id="DayOfWeek_tspan2"> </tspan>
    </text>
    <text style="fill:black;font-family:Arial;font-size:14px;" x="52.22282028198242" y="947.8796997070312" id="Time">
        <tspan x="52.22282028198242" id="Time_tspan1" style="font-weight: bold;">Время: </tspan>
        <tspan dx="0" id="Time_tspan2"> </tspan>
    </text>
    <line id="e3_line" x1="393.037" y1="28.6701" x2="393.054" y2="954.644" style="stroke:black;fill:none;stroke-width:2px;"/>
</svg>